<?xml version="1.0" encoding="utf-8"?>
<!-- Generator: Adobe Illustrator 25.2.1, SVG Export Plug-In . SVG Version: 6.00 Build 0)  -->
<svg version="1.1" id="PerrArch" xmlns="http://www.w3.org/2000/svg" xmlns:xlink="http://www.w3.org/1999/xlink" x="0px" y="0px"
	 viewBox="0 0 484.0514 285.4683" enable-background="new 0 0 484.0514 285.4683" xml:space="preserve">
<path fill="#F2F0F0" stroke="#231F20" stroke-miterlimit="10" d="M179.3788,141.1125H138.184c-1.1,0-2-0.9-2-2v-19.7567
	c0-1.1,0.9-2,2-2h41.1948c1.1,0,2,0.9,2,2v19.7567C181.3788,140.2125,180.4788,141.1125,179.3788,141.1125z"/>
<g>
	<path d="M156.0787,122.229l-1.6597,4.5596h-0.8086l-1.6597-4.5596h0.6494l1.4297,4.0112l1.4302-4.0112H156.0787z"/>
	<path d="M157.3434,122.7954h-0.6494v-0.5972h0.6494V122.7954z M157.3067,126.7886h-0.5757v-3.4204h0.5757V126.7886z"/>
	<path d="M161.3087,125.1382h-2.52c0,0.21,0.0312,0.3936,0.0947,0.5498c0.063,0.1558,0.1499,0.2842,0.2603,0.3843
		c0.106,0.0977,0.2324,0.1714,0.3779,0.2202c0.146,0.0488,0.3071,0.0737,0.4824,0.0737c0.2329,0,0.4673-0.0464,0.7026-0.1396
		c0.2358-0.0928,0.4038-0.1841,0.5039-0.2739h0.0308v0.6279c-0.1938,0.0815-0.3921,0.1499-0.5942,0.2051
		s-0.4146,0.0825-0.6367,0.0825c-0.5679,0-1.0107-0.1533-1.3291-0.4609c-0.3184-0.3071-0.4775-0.7437-0.4775-1.3091
		c0-0.5591,0.1523-1.0029,0.4575-1.332c0.3052-0.3286,0.707-0.4927,1.2051-0.4927c0.4614,0,0.8169,0.1348,1.0674,0.4038
		c0.25,0.2695,0.375,0.6523,0.375,1.1484V125.1382z M160.7482,124.6973c-0.002-0.3022-0.0781-0.5361-0.228-0.7012
		c-0.1499-0.1655-0.3784-0.248-0.6846-0.248c-0.3081,0-0.5537,0.0908-0.7363,0.2725s-0.2861,0.4072-0.3105,0.6768H160.7482z"/>
	<path d="M166.4835,123.3681l-0.8911,3.4204h-0.5327l-0.8789-2.6362l-0.8726,2.6362h-0.5298l-0.9004-3.4204h0.6001l0.6279,2.6489
		l0.8545-2.6489h0.4746l0.8755,2.6489l0.5942-2.6489H166.4835z"/>
	<path d="M147.9625,133.9834c-0.1123,0.0488-0.2139,0.0947-0.3047,0.1377s-0.2095,0.0879-0.3564,0.1348
		c-0.125,0.0386-0.2603,0.0718-0.4058,0.0996c-0.146,0.0273-0.3071,0.041-0.4824,0.041c-0.3306,0-0.6313-0.0464-0.9019-0.1392
		s-0.5059-0.2383-0.7056-0.4365c-0.1963-0.1938-0.3491-0.4404-0.4595-0.7393c-0.1104-0.2993-0.1655-0.6465-0.1655-1.0425
		c0-0.376,0.0532-0.7114,0.1592-1.0078c0.1064-0.2959,0.2593-0.5459,0.4595-0.75c0.1938-0.1982,0.4282-0.3491,0.7026-0.4531
		c0.2744-0.1045,0.5791-0.1562,0.9141-0.1562c0.2451,0,0.4893,0.0298,0.7334,0.0889s0.5151,0.1631,0.813,0.312v0.7197h-0.0459
		c-0.251-0.21-0.5-0.3633-0.7471-0.4595c-0.2471-0.0957-0.5112-0.1436-0.793-0.1436c-0.231,0-0.4385,0.0371-0.6235,0.1118
		c-0.1846,0.0742-0.3496,0.1904-0.4941,0.3472c-0.1411,0.1533-0.251,0.3467-0.3296,0.5806s-0.1177,0.5034-0.1177,0.8101
		c0,0.3203,0.0435,0.5957,0.1304,0.8267c0.0864,0.2305,0.1982,0.4185,0.335,0.5635c0.1431,0.1509,0.3101,0.2627,0.501,0.335
		c0.1904,0.0728,0.3921,0.1089,0.6045,0.1089c0.292,0,0.5654-0.0498,0.8208-0.1499c0.2549-0.1001,0.4941-0.25,0.7163-0.4502h0.043
		V133.9834z"/>
	<path d="M151.6891,132.6055c0,0.5571-0.1426,0.9971-0.4287,1.3198c-0.2856,0.3223-0.6685,0.4834-1.1479,0.4834
		c-0.4839,0-0.8682-0.1611-1.1528-0.4834c-0.2852-0.3228-0.4272-0.7627-0.4272-1.3198c0-0.5576,0.1421-0.998,0.4272-1.3213
		c0.2847-0.3237,0.6689-0.4854,1.1528-0.4854c0.4795,0,0.8623,0.1616,1.1479,0.4854
		C151.5465,131.6074,151.6891,132.0478,151.6891,132.6055z M151.0953,132.6055c0-0.4429-0.0869-0.7725-0.2603-0.9878
		c-0.1738-0.2153-0.4146-0.3228-0.7227-0.3228c-0.3125,0-0.5547,0.1074-0.7275,0.3228c-0.1724,0.2153-0.2588,0.5449-0.2588,0.9878
		c0,0.4287,0.0869,0.7534,0.2603,0.9751c0.1738,0.2217,0.4155,0.332,0.7261,0.332c0.3062,0,0.5464-0.1094,0.7212-0.3291
		C151.0079,133.3642,151.0953,133.0381,151.0953,132.6055z"/>
	<path d="M155.44,134.3139h-0.5757v-1.9473c0-0.1572-0.0088-0.3047-0.0273-0.4429c-0.0186-0.1377-0.0522-0.2451-0.1011-0.3228
		c-0.0508-0.0859-0.1245-0.1494-0.2202-0.1914c-0.0962-0.042-0.2207-0.063-0.374-0.063c-0.1572,0-0.3213,0.0391-0.4927,0.1167
		c-0.1714,0.0771-0.3359,0.1763-0.4932,0.2969v2.5537h-0.5757v-3.4204h0.5757v0.3799c0.1797-0.1489,0.3652-0.2656,0.5576-0.3491
		c0.1914-0.084,0.3887-0.1255,0.5908-0.1255c0.3696,0,0.6509,0.1113,0.8452,0.3335c0.1938,0.2227,0.2905,0.543,0.2905,0.9614
		V134.3139z"/>
	<path d="M158.3243,134.2832c-0.1079,0.0288-0.2261,0.0522-0.3535,0.0708c-0.1274,0.0181-0.2412,0.0273-0.3413,0.0273
		c-0.3491,0-0.6147-0.0938-0.7964-0.2817s-0.2725-0.4888-0.2725-0.9033v-1.8188h-0.3887v-0.4839h0.3887v-0.9829h0.5757v0.9829h1.188
		v0.4839h-1.188v1.5586c0,0.1797,0.0044,0.3198,0.0122,0.4209c0.0083,0.1011,0.0371,0.1958,0.0859,0.2832
		c0.0449,0.082,0.1064,0.1416,0.1851,0.1792c0.0786,0.0381,0.1987,0.0566,0.3599,0.0566c0.0938,0,0.1919-0.0137,0.2939-0.041
		c0.1021-0.0278,0.1758-0.0508,0.2207-0.0693h0.0303V134.2832z"/>
	<path d="M161.1539,131.5215h-0.0308c-0.0854-0.0205-0.1689-0.0352-0.2495-0.0444s-0.1758-0.0137-0.2861-0.0137
		c-0.1777,0-0.3491,0.0391-0.5146,0.1177c-0.165,0.0786-0.3242,0.1802-0.4775,0.3047v2.4282h-0.5757v-3.4204h0.5757v0.5054
		c0.2285-0.1836,0.4302-0.314,0.605-0.3906c0.1743-0.0767,0.3525-0.1147,0.5342-0.1147c0.1001,0,0.1724,0.0024,0.2173,0.0078
		c0.0449,0.0049,0.1123,0.0146,0.2021,0.0288V131.5215z"/>
	<path d="M164.6109,132.6055c0,0.5571-0.1426,0.9971-0.4287,1.3198c-0.2856,0.3223-0.6685,0.4834-1.1479,0.4834
		c-0.4839,0-0.8682-0.1611-1.1528-0.4834c-0.2852-0.3228-0.4272-0.7627-0.4272-1.3198c0-0.5576,0.1421-0.998,0.4272-1.3213
		c0.2847-0.3237,0.6689-0.4854,1.1528-0.4854c0.4795,0,0.8623,0.1616,1.1479,0.4854
		C164.4684,131.6074,164.6109,132.0478,164.6109,132.6055z M164.0172,132.6055c0-0.4429-0.0869-0.7725-0.2603-0.9878
		c-0.1738-0.2153-0.4146-0.3228-0.7227-0.3228c-0.3125,0-0.5547,0.1074-0.7275,0.3228c-0.1724,0.2153-0.2588,0.5449-0.2588,0.9878
		c0,0.4287,0.0869,0.7534,0.2603,0.9751c0.1738,0.2217,0.4155,0.332,0.7261,0.332c0.3062,0,0.5464-0.1094,0.7212-0.3291
		C163.9298,133.3642,164.0172,133.0381,164.0172,132.6055z"/>
	<path d="M166.0841,134.3139h-0.5757v-4.7646h0.5757V134.3139z"/>
	<path d="M167.8053,134.3139h-0.5757v-4.7646h0.5757V134.3139z"/>
	<path d="M171.8072,132.6636h-2.52c0,0.21,0.0312,0.3936,0.0947,0.5498c0.063,0.1558,0.1499,0.2842,0.2603,0.3843
		c0.106,0.0977,0.2324,0.1714,0.3779,0.2202c0.146,0.0488,0.3071,0.0737,0.4824,0.0737c0.2329,0,0.4673-0.0464,0.7026-0.1396
		c0.2358-0.0928,0.4038-0.1841,0.5039-0.2739h0.0308v0.6279c-0.1938,0.0815-0.3921,0.1499-0.5942,0.2051
		s-0.4146,0.0825-0.6367,0.0825c-0.5679,0-1.0107-0.1533-1.3291-0.4609c-0.3184-0.3071-0.4775-0.7437-0.4775-1.3091
		c0-0.5591,0.1523-1.0029,0.4575-1.332c0.3052-0.3286,0.707-0.4927,1.2051-0.4927c0.4614,0,0.8169,0.1348,1.0674,0.4038
		c0.25,0.2695,0.375,0.6523,0.375,1.1484V132.6636z M171.2467,132.2226c-0.002-0.3022-0.0781-0.5361-0.228-0.7012
		c-0.1499-0.1655-0.3784-0.248-0.6846-0.248c-0.3081,0-0.5537,0.0908-0.7363,0.2725s-0.2861,0.4072-0.3105,0.6768H171.2467z"/>
	<path d="M174.8141,131.5215h-0.0308c-0.0854-0.0205-0.1689-0.0352-0.2495-0.0444s-0.1758-0.0137-0.2861-0.0137
		c-0.1777,0-0.3491,0.0391-0.5146,0.1177c-0.165,0.0786-0.3242,0.1802-0.4775,0.3047v2.4282h-0.5757v-3.4204h0.5757v0.5054
		c0.2285-0.1836,0.4302-0.314,0.605-0.3906c0.1743-0.0767,0.3525-0.1147,0.5342-0.1147c0.1001,0,0.1724,0.0024,0.2173,0.0078
		c0.0449,0.0049,0.1123,0.0146,0.2021,0.0288V131.5215z"/>
</g>
<line fill="none" stroke="#000000" stroke-miterlimit="10" x1="181.3788" y1="128.7217" x2="271.8681" y2="128.7217"/>
<path fill="#F2F0F0" stroke="#231F20" stroke-miterlimit="10" d="M111.5368,140.6001H70.342c-1.1,0-2-0.9-2-2v-19.7568
	c0-1.1,0.9-2,2-2h41.1948c1.1,0,2,0.9,2,2v19.7568C113.5368,139.7,112.6368,140.6001,111.5368,140.6001z"/>
<g>
	<path d="M85.0187,125.7163l-1.1851,4.5596H83.151l-0.9585-3.7847l-0.937,3.7847H80.588l-1.2065-4.5596h0.6216l0.9585,3.791
		l0.9429-3.791h0.6157l0.9521,3.8276l0.9526-3.8276H85.0187z"/>
	<path d="M86.4855,126.2827h-0.6494v-0.5972h0.6494V126.2827z M86.4488,130.2759h-0.5757v-3.4204h0.5757V130.2759z"/>
	<path d="M90.4479,130.2759h-0.5757v-1.9473c0-0.1572-0.0088-0.3047-0.0273-0.4429c-0.0186-0.1377-0.0522-0.2451-0.1011-0.3228
		c-0.0508-0.0859-0.1245-0.1494-0.2202-0.1914c-0.0962-0.042-0.2207-0.063-0.374-0.063c-0.1572,0-0.3213,0.0391-0.4927,0.1167
		c-0.1714,0.0771-0.3359,0.1763-0.4932,0.2969v2.5537H87.588v-3.4204h0.5757v0.3799c0.1797-0.1489,0.3652-0.2656,0.5576-0.3491
		c0.1914-0.084,0.3887-0.1255,0.5908-0.1255c0.3696,0,0.6509,0.1113,0.8452,0.3335c0.1938,0.2227,0.2905,0.543,0.2905,0.9614
		V130.2759z"/>
	<path d="M94.3307,130.2759H93.755v-0.3584c-0.1655,0.1431-0.3379,0.2544-0.5176,0.334s-0.3745,0.1191-0.585,0.1191
		c-0.4082,0-0.7324-0.1567-0.9722-0.4712s-0.3599-0.7505-0.3599-1.3076c0-0.29,0.0415-0.5483,0.124-0.7749
		c0.083-0.2266,0.1943-0.4194,0.3354-0.5786c0.1387-0.1553,0.3008-0.2734,0.4854-0.355c0.1846-0.082,0.376-0.1226,0.5742-0.1226
		c0.1797,0,0.3389,0.0186,0.4775,0.0566c0.1387,0.0376,0.2847,0.0962,0.438,0.1758v-1.4819h0.5757V130.2759z M93.755,129.4336
		v-1.9624c-0.1553-0.0693-0.2939-0.1177-0.4165-0.144s-0.2563-0.04-0.4014-0.04c-0.3223,0-0.5732,0.1123-0.7529,0.3369
		s-0.2695,0.543-0.2695,0.9556c0,0.4062,0.0693,0.7148,0.208,0.9263c0.1392,0.2114,0.3613,0.3169,0.6675,0.3169
		c0.1636,0,0.3291-0.0361,0.4961-0.1089C93.4537,129.6416,93.61,129.5483,93.755,129.4336z"/>
	<path d="M98.3785,128.5674c0,0.5571-0.1426,0.9971-0.4287,1.3198c-0.2856,0.3223-0.6685,0.4834-1.1479,0.4834
		c-0.4839,0-0.8682-0.1611-1.1528-0.4834c-0.2852-0.3228-0.4272-0.7627-0.4272-1.3198c0-0.5576,0.1421-0.998,0.4272-1.3213
		c0.2847-0.3237,0.6689-0.4854,1.1528-0.4854c0.4795,0,0.8623,0.1616,1.1479,0.4854
		C98.236,127.5693,98.3785,128.0098,98.3785,128.5674z M97.7848,128.5674c0-0.4429-0.0869-0.7725-0.2603-0.9878
		c-0.1738-0.2153-0.4146-0.3228-0.7227-0.3228c-0.3125,0-0.5547,0.1074-0.7275,0.3228c-0.1724,0.2153-0.2588,0.5449-0.2588,0.9878
		c0,0.4287,0.0869,0.7534,0.2603,0.9751c0.1738,0.2217,0.4155,0.332,0.7261,0.332c0.3062,0,0.5464-0.1094,0.7212-0.3291
		C97.6974,129.3262,97.7848,129,97.7848,128.5674z"/>
	<path d="M103.5719,126.8555l-0.8911,3.4204h-0.5327l-0.8789-2.6362l-0.8726,2.6362h-0.5298l-0.9004-3.4204h0.6001l0.6279,2.6489
		l0.8545-2.6489h0.4746l0.8755,2.6489l0.5942-2.6489H103.5719z"/>
</g>
<line fill="none" stroke="#000000" stroke-miterlimit="10" x1="113.5368" y1="128.2092" x2="136.184" y2="128.2092"/>
<path fill="none" stroke="#000000" stroke-miterlimit="10" d="M0.5,128.2092"/>
<path fill="#F2F0F0" stroke="#231F20" stroke-miterlimit="10" d="M43.6948,140.6001H2.5c-1.1,0-2-0.9-2-2v-19.7568c0-1.1,0.9-2,2-2
	h41.1948c1.1,0,2,0.9,2,2v19.7568C45.6948,139.7,44.7948,140.6001,43.6948,140.6001z"/>
<g>
	<path d="M21.7823,126.2759h-0.6465l-0.4468-1.271h-1.9722l-0.4468,1.271h-0.6157l1.6597-4.5596h0.8086L21.7823,126.2759z
		 M20.5021,124.4844l-0.7993-2.2383l-0.8022,2.2383H20.5021z"/>
	<path d="M25.4386,124.5244c0,0.2778-0.04,0.5312-0.1196,0.7607c-0.0796,0.23-0.1919,0.4243-0.3369,0.5835
		c-0.1348,0.1509-0.2935,0.2681-0.4761,0.3506s-0.376,0.124-0.5801,0.124c-0.1777,0-0.3384-0.0195-0.4824-0.0581
		c-0.144-0.0391-0.2905-0.0991-0.4395-0.1807v1.4331h-0.5757v-4.6821h0.5757v0.3584c0.1533-0.1289,0.3252-0.2363,0.5161-0.3232
		c0.1909-0.0864,0.3945-0.1299,0.6108-0.1299c0.4121,0,0.7334,0.1558,0.9629,0.4668
		C25.3238,123.539,25.4386,123.9712,25.4386,124.5244z M24.8444,124.5395c0-0.4121-0.0703-0.7207-0.2114-0.9248
		c-0.1406-0.2041-0.3569-0.3062-0.6489-0.3062c-0.1655,0-0.332,0.0356-0.499,0.1074c-0.1675,0.0713-0.3276,0.165-0.481,0.2817v1.938
		c0.1636,0.0737,0.3037,0.1235,0.4209,0.1504c0.1177,0.0264,0.251,0.0396,0.3999,0.0396c0.3203,0,0.5703-0.1079,0.75-0.3247
		C24.7545,125.2847,24.8444,124.9643,24.8444,124.5395z"/>
	<path d="M29.3458,124.5244c0,0.2778-0.04,0.5312-0.1196,0.7607c-0.0796,0.23-0.1919,0.4243-0.3369,0.5835
		c-0.1348,0.1509-0.2935,0.2681-0.4761,0.3506s-0.376,0.124-0.5801,0.124c-0.1777,0-0.3384-0.0195-0.4824-0.0581
		c-0.144-0.0391-0.2905-0.0991-0.4395-0.1807v1.4331h-0.5757v-4.6821h0.5757v0.3584c0.1533-0.1289,0.3252-0.2363,0.5161-0.3232
		c0.1909-0.0864,0.3945-0.1299,0.6108-0.1299c0.4121,0,0.7334,0.1558,0.9629,0.4668
		C29.2311,123.539,29.3458,123.9712,29.3458,124.5244z M28.7516,124.5395c0-0.4121-0.0703-0.7207-0.2114-0.9248
		c-0.1406-0.2041-0.3569-0.3062-0.6489-0.3062c-0.1655,0-0.332,0.0356-0.499,0.1074c-0.1675,0.0713-0.3276,0.165-0.481,0.2817v1.938
		c0.1636,0.0737,0.3037,0.1235,0.4209,0.1504c0.1177,0.0264,0.251,0.0396,0.3999,0.0396c0.3203,0,0.5703-0.1079,0.75-0.3247
		C28.6617,125.2847,28.7516,124.9643,28.7516,124.5395z"/>
	<path d="M14.1373,131.5264c0,0.4141-0.0903,0.7896-0.271,1.1265s-0.4209,0.5981-0.7207,0.7842
		c-0.2085,0.1284-0.4409,0.2212-0.6968,0.2783c-0.2563,0.0576-0.5938,0.0859-1.0122,0.0859h-1.1514v-4.5596h1.1392
		c0.4448,0,0.7988,0.0322,1.061,0.0967c0.2622,0.064,0.4844,0.1523,0.666,0.2646c0.3105,0.1938,0.5522,0.4521,0.7256,0.7749
		C14.0509,130.7002,14.1373,131.083,14.1373,131.5264z M13.5035,131.5171c0-0.3574-0.062-0.6587-0.1865-0.9033
		c-0.1245-0.2451-0.3105-0.438-0.5576-0.5791c-0.1797-0.1021-0.3701-0.1729-0.5723-0.2124c-0.2021-0.04-0.4443-0.0601-0.7261-0.0601
		h-0.5693v3.5186h0.5693c0.292,0,0.5469-0.0215,0.7642-0.0645s0.417-0.1226,0.5986-0.2388c0.2266-0.145,0.3965-0.3359,0.5098-0.5728
		S13.5035,131.8721,13.5035,131.5171z"/>
	<path d="M17.9347,132.1509h-2.52c0,0.21,0.0312,0.3936,0.0947,0.5498c0.063,0.1558,0.1499,0.2842,0.2603,0.3843
		c0.106,0.0977,0.2324,0.1714,0.3779,0.2202c0.146,0.0488,0.3071,0.0737,0.4824,0.0737c0.2329,0,0.4673-0.0464,0.7026-0.1396
		c0.2358-0.0928,0.4038-0.1841,0.5039-0.2739h0.0308v0.6279c-0.1938,0.0815-0.3921,0.1499-0.5942,0.2051
		s-0.4146,0.0825-0.6367,0.0825c-0.5679,0-1.0107-0.1533-1.3291-0.4609c-0.3184-0.3071-0.4775-0.7437-0.4775-1.3091
		c0-0.5591,0.1523-1.0029,0.4575-1.332c0.3052-0.3286,0.707-0.4927,1.2051-0.4927c0.4614,0,0.8169,0.1348,1.0674,0.4038
		c0.25,0.2695,0.375,0.6523,0.375,1.1484V132.1509z M17.3741,131.7099c-0.002-0.3022-0.0781-0.5361-0.228-0.7012
		c-0.1499-0.1655-0.3784-0.248-0.6846-0.248c-0.3081,0-0.5537,0.0908-0.7363,0.2725s-0.2861,0.4072-0.3105,0.6768H17.3741z"/>
	<path d="M19.3893,133.8013h-0.5757v-4.7646h0.5757V133.8013z"/>
	<path d="M23.3912,132.1509h-2.52c0,0.21,0.0312,0.3936,0.0947,0.5498c0.063,0.1558,0.1499,0.2842,0.2603,0.3843
		c0.106,0.0977,0.2324,0.1714,0.3779,0.2202c0.146,0.0488,0.3071,0.0737,0.4824,0.0737c0.2329,0,0.4673-0.0464,0.7026-0.1396
		c0.2358-0.0928,0.4038-0.1841,0.5039-0.2739h0.0308v0.6279c-0.1938,0.0815-0.3921,0.1499-0.5942,0.2051
		s-0.4146,0.0825-0.6367,0.0825c-0.5679,0-1.0107-0.1533-1.3291-0.4609c-0.3184-0.3071-0.4775-0.7437-0.4775-1.3091
		c0-0.5591,0.1523-1.0029,0.4575-1.332c0.3052-0.3286,0.707-0.4927,1.2051-0.4927c0.4614,0,0.8169,0.1348,1.0674,0.4038
		c0.25,0.2695,0.375,0.6523,0.375,1.1484V132.1509z M22.8307,131.7099c-0.002-0.3022-0.0781-0.5361-0.228-0.7012
		c-0.1499-0.1655-0.3784-0.248-0.6846-0.248c-0.3081,0-0.5537,0.0908-0.7363,0.2725s-0.2861,0.4072-0.3105,0.6768H22.8307z"/>
	<path d="M27.0382,133.4126c0,0.5796-0.1318,1.0054-0.395,1.2769s-0.6685,0.4072-1.2158,0.4072
		c-0.1816,0-0.3589-0.0127-0.5312-0.0386c-0.1724-0.0254-0.3423-0.0615-0.5098-0.1084v-0.5879h0.0308
		c0.0938,0.0366,0.2427,0.082,0.4468,0.1362c0.2041,0.0537,0.4082,0.0811,0.6128,0.0811c0.1958,0,0.3579-0.0234,0.4868-0.0703
		c0.1284-0.0474,0.2285-0.1123,0.2998-0.1963c0.0718-0.0796,0.1226-0.1753,0.1533-0.2876s0.0459-0.2378,0.0459-0.377v-0.312
		c-0.1738,0.1387-0.3394,0.2422-0.4976,0.3105s-0.3599,0.1025-0.605,0.1025c-0.4082,0-0.7324-0.1475-0.9722-0.4424
		s-0.3599-0.7109-0.3599-1.2476c0-0.2939,0.0415-0.5479,0.124-0.7612c0.083-0.2134,0.1958-0.3975,0.3384-0.5527
		c0.1328-0.1445,0.2939-0.2573,0.4839-0.3384c0.1899-0.0806,0.3789-0.1206,0.5664-0.1206c0.1982,0,0.3638,0.0195,0.4976,0.0596
		c0.1338,0.0396,0.2754,0.1006,0.4243,0.1821l0.0366-0.147h0.5391V133.4126z M26.4625,132.8613v-1.8647
		c-0.1533-0.0693-0.2954-0.1191-0.4272-0.1489c-0.1318-0.0293-0.2627-0.0439-0.3936-0.0439c-0.3164,0-0.5654,0.106-0.7471,0.3184
		s-0.2725,0.5205-0.2725,0.9248c0,0.3838,0.0674,0.6743,0.2021,0.8726c0.1348,0.1978,0.3584,0.2969,0.6704,0.2969
		c0.1675,0,0.3354-0.0322,0.5039-0.0962C26.1671,133.0556,26.3214,132.9692,26.4625,132.8613z"/>
	<path d="M30.8292,133.8013h-0.5728v-0.3643c-0.0513,0.0347-0.1201,0.083-0.2065,0.1455c-0.0869,0.062-0.1714,0.1118-0.2529,0.1484
		c-0.0957,0.0469-0.2061,0.0859-0.3306,0.1177s-0.2705,0.0474-0.438,0.0474c-0.3081,0-0.5693-0.1021-0.7837-0.3062
		s-0.3218-0.4644-0.3218-0.7808c0-0.2593,0.0557-0.4688,0.167-0.6294c0.1113-0.1602,0.27-0.2861,0.4761-0.3779
		c0.2085-0.0918,0.4585-0.1543,0.7505-0.187c0.2915-0.0322,0.605-0.0571,0.9399-0.0732v-0.0889
		c0-0.1309-0.0229-0.2388-0.0688-0.3247c-0.0459-0.0854-0.1118-0.1528-0.1978-0.2021c-0.0815-0.0469-0.1797-0.0786-0.2939-0.0947
		s-0.2339-0.0244-0.3584-0.0244c-0.1509,0-0.3193,0.02-0.5049,0.0596c-0.186,0.04-0.3779,0.0977-0.5757,0.1729h-0.0308v-0.5845
		c0.1123-0.0308,0.2744-0.0645,0.4868-0.1011c0.2124-0.0371,0.4214-0.0552,0.6279-0.0552c0.2407,0,0.4507,0.02,0.6289,0.0596
		c0.1787,0.04,0.3335,0.1079,0.4644,0.2036c0.1284,0.0938,0.2266,0.2153,0.2939,0.3643c0.0674,0.1494,0.1011,0.334,0.1011,0.5542
		V133.8013z M30.2565,132.959v-0.9521c-0.1758,0.0103-0.3823,0.0254-0.6201,0.0459s-0.4263,0.0503-0.5649,0.0889
		c-0.1655,0.0469-0.2993,0.1201-0.4014,0.2188c-0.1021,0.0991-0.1528,0.2354-0.1528,0.4092c0,0.1958,0.0591,0.3433,0.1777,0.4424
		c0.1182,0.0991,0.2988,0.1484,0.542,0.1484c0.2017,0,0.3867-0.0391,0.5542-0.1177
		C29.9581,133.164,30.1134,133.0693,30.2565,132.959z"/>
	<path d="M33.7135,133.7705c-0.1079,0.0288-0.2261,0.0522-0.3535,0.0708c-0.1274,0.0181-0.2412,0.0273-0.3413,0.0273
		c-0.3491,0-0.6147-0.0938-0.7964-0.2817s-0.2725-0.4888-0.2725-0.9033v-1.8188h-0.3887v-0.4839h0.3887v-0.9829h0.5757v0.9829h1.188
		v0.4839h-1.188v1.5586c0,0.1797,0.0044,0.3198,0.0122,0.4209c0.0083,0.1011,0.0371,0.1958,0.0859,0.2832
		c0.0449,0.082,0.1064,0.1416,0.1851,0.1792c0.0786,0.0381,0.1987,0.0566,0.3599,0.0566c0.0938,0,0.1919-0.0137,0.2939-0.041
		c0.1021-0.0278,0.1758-0.0508,0.2207-0.0693h0.0303V133.7705z"/>
	<path d="M37.2716,132.1509h-2.52c0,0.21,0.0312,0.3936,0.0947,0.5498c0.063,0.1558,0.1499,0.2842,0.2603,0.3843
		c0.106,0.0977,0.2324,0.1714,0.3779,0.2202c0.146,0.0488,0.3071,0.0737,0.4824,0.0737c0.2329,0,0.4673-0.0464,0.7026-0.1396
		c0.2358-0.0928,0.4038-0.1841,0.5039-0.2739h0.0308v0.6279c-0.1938,0.0815-0.3921,0.1499-0.5942,0.2051
		s-0.4146,0.0825-0.6367,0.0825c-0.5679,0-1.0107-0.1533-1.3291-0.4609c-0.3184-0.3071-0.4775-0.7437-0.4775-1.3091
		c0-0.5591,0.1523-1.0029,0.4575-1.332c0.3052-0.3286,0.707-0.4927,1.2051-0.4927c0.4614,0,0.8169,0.1348,1.0674,0.4038
		c0.25,0.2695,0.375,0.6523,0.375,1.1484V132.1509z M36.7111,131.7099c-0.002-0.3022-0.0781-0.5361-0.228-0.7012
		c-0.1499-0.1655-0.3784-0.248-0.6846-0.248c-0.3081,0-0.5537,0.0908-0.7363,0.2725s-0.2861,0.4072-0.3105,0.6768H36.7111z"/>
</g>
<line fill="none" stroke="#000000" stroke-miterlimit="10" x1="45.6948" y1="128.2092" x2="68.342" y2="128.2092"/>
<path fill="#F2F0F0" stroke="#231F20" stroke-miterlimit="10" d="M248.7589,53.4718h-41.1948c-1.1,0-2-0.9-2-2V31.715
	c0-1.1,0.9-2,2-2h41.1948c1.1,0,2,0.9,2,2v19.7567C250.7589,52.5718,249.8589,53.4718,248.7589,53.4718z"/>
<g>
	<path d="M219.7086,40.8467c0,0.1772-0.0415,0.353-0.124,0.5264c-0.083,0.1738-0.1987,0.3208-0.3477,0.4409
		c-0.1636,0.1309-0.3535,0.2329-0.5713,0.3066c-0.2173,0.0732-0.479,0.1099-0.7852,0.1099c-0.3286,0-0.6245-0.0303-0.8867-0.0918
		c-0.2622-0.061-0.5293-0.1519-0.8008-0.2725v-0.7593h0.043c0.231,0.1919,0.4971,0.3398,0.7993,0.4438s0.5859,0.1562,0.8511,0.1562
		c0.376,0,0.668-0.0703,0.8774-0.2114c0.209-0.1406,0.314-0.3286,0.314-0.5635c0-0.2021-0.0498-0.3511-0.1484-0.4468
		c-0.0991-0.0962-0.2495-0.1704-0.4517-0.2236c-0.1533-0.041-0.3193-0.0747-0.4976-0.1011
		c-0.1787-0.0264-0.3682-0.0601-0.5684-0.1011c-0.4043-0.0859-0.7036-0.2319-0.8984-0.4395
		c-0.1953-0.207-0.2925-0.4771-0.2925-0.8101c0-0.3813,0.1611-0.6943,0.4839-0.9385c0.3223-0.2437,0.7314-0.3657,1.2275-0.3657
		c0.3208,0,0.6147,0.0308,0.8818,0.0918c0.2676,0.061,0.5044,0.1367,0.7104,0.2266v0.7168h-0.0425
		c-0.1738-0.147-0.4019-0.269-0.6846-0.3662c-0.2827-0.0967-0.5723-0.1455-0.8682-0.1455c-0.3247,0-0.5854,0.0674-0.7822,0.2021
		c-0.1973,0.1348-0.2954,0.3081-0.2954,0.5205c0,0.1899,0.0488,0.3389,0.147,0.4473c0.0977,0.1079,0.2705,0.1909,0.5171,0.248
		c0.1309,0.0283,0.3164,0.063,0.5576,0.104c0.2407,0.041,0.4448,0.0825,0.6123,0.1255c0.3389,0.0898,0.5942,0.2256,0.7656,0.4072
		S219.7086,40.52,219.7086,40.8467z"/>
	<path d="M223.1656,41.9336c-0.1919,0.0918-0.374,0.1636-0.5464,0.2144c-0.1729,0.0508-0.356,0.0767-0.5498,0.0767
		c-0.2471,0-0.4736-0.0361-0.6797-0.1089c-0.2061-0.0723-0.3828-0.1821-0.5298-0.3291c-0.1489-0.147-0.2646-0.3325-0.3462-0.5571
		s-0.1226-0.4868-0.1226-0.7871c0-0.5596,0.1538-0.998,0.4609-1.3169c0.3071-0.3184,0.7129-0.4775,1.2173-0.4775
		c0.1958,0,0.3882,0.0273,0.5771,0.0825s0.3618,0.1226,0.519,0.2021v0.6401h-0.0308c-0.1753-0.1367-0.3564-0.2417-0.5435-0.3154
		c-0.1865-0.0737-0.3687-0.1104-0.5464-0.1104c-0.3267,0-0.5845,0.1099-0.7734,0.3291c-0.1885,0.2197-0.2832,0.5415-0.2832,0.9663
		c0,0.4126,0.0923,0.7295,0.2773,0.9507c0.1846,0.2217,0.4443,0.3325,0.7793,0.3325c0.1162,0,0.2349-0.0156,0.355-0.0459
		c0.1206-0.0308,0.229-0.0708,0.3247-0.1196c0.0835-0.043,0.1621-0.0884,0.2358-0.1362s0.1318-0.0894,0.1743-0.124h0.0308V41.9336z"
		/>
	<path d="M226.7667,40.4975h-2.52c0,0.21,0.0312,0.3936,0.0947,0.5498c0.063,0.1558,0.1499,0.2842,0.2603,0.3843
		c0.106,0.0977,0.2324,0.1714,0.3779,0.2202c0.146,0.0488,0.3071,0.0737,0.4824,0.0737c0.2329,0,0.4673-0.0464,0.7026-0.1396
		c0.2358-0.0928,0.4038-0.1841,0.5039-0.2739h0.0308v0.6279c-0.1938,0.0815-0.3921,0.1499-0.5942,0.2051
		s-0.4146,0.0825-0.6367,0.0825c-0.5679,0-1.0107-0.1533-1.3291-0.4609c-0.3184-0.3071-0.4775-0.7437-0.4775-1.3091
		c0-0.5591,0.1523-1.0029,0.4575-1.332c0.3052-0.3286,0.707-0.4927,1.2051-0.4927c0.4614,0,0.8169,0.1348,1.0674,0.4038
		c0.25,0.2695,0.375,0.6523,0.375,1.1484V40.4975z M226.2062,40.0566c-0.002-0.3022-0.0781-0.5361-0.228-0.7012
		c-0.1499-0.1655-0.3784-0.248-0.6846-0.248c-0.3081,0-0.5537,0.0908-0.7363,0.2725s-0.2861,0.4072-0.3105,0.6768H226.2062z"/>
	<path d="M230.4991,42.1479h-0.5757v-1.9473c0-0.1572-0.0088-0.3047-0.0273-0.4429c-0.0186-0.1377-0.0522-0.2451-0.1011-0.3228
		c-0.0508-0.0859-0.1245-0.1494-0.2202-0.1914c-0.0962-0.042-0.2207-0.063-0.374-0.063c-0.1572,0-0.3213,0.0391-0.4927,0.1167
		c-0.1714,0.0771-0.3359,0.1763-0.4932,0.2969v2.5537h-0.5757v-3.4204h0.5757v0.3799c0.1797-0.1489,0.3652-0.2656,0.5576-0.3491
		c0.1914-0.084,0.3887-0.1255,0.5908-0.1255c0.3696,0,0.6509,0.1113,0.8452,0.3335c0.1938,0.2227,0.2905,0.543,0.2905,0.9614
		V42.1479z"/>
	<path d="M234.4708,40.4975h-2.52c0,0.21,0.0312,0.3936,0.0947,0.5498c0.063,0.1558,0.1499,0.2842,0.2603,0.3843
		c0.106,0.0977,0.2324,0.1714,0.3779,0.2202c0.146,0.0488,0.3071,0.0737,0.4824,0.0737c0.2329,0,0.4673-0.0464,0.7026-0.1396
		c0.2358-0.0928,0.4038-0.1841,0.5039-0.2739h0.0308v0.6279c-0.1938,0.0815-0.3921,0.1499-0.5942,0.2051
		s-0.4146,0.0825-0.6367,0.0825c-0.5679,0-1.0107-0.1533-1.3291-0.4609c-0.3184-0.3071-0.4775-0.7437-0.4775-1.3091
		c0-0.5591,0.1523-1.0029,0.4575-1.332c0.3052-0.3286,0.707-0.4927,1.2051-0.4927c0.4614,0,0.8169,0.1348,1.0674,0.4038
		c0.25,0.2695,0.375,0.6523,0.375,1.1484V40.4975z M233.9103,40.0566c-0.002-0.3022-0.0781-0.5361-0.228-0.7012
		c-0.1499-0.1655-0.3784-0.248-0.6846-0.248c-0.3081,0-0.5537,0.0908-0.7363,0.2725s-0.2861,0.4072-0.3105,0.6768H233.9103z"/>
	<path d="M238.3566,42.1479h-3.0864v-0.6401c0.2144-0.1836,0.4292-0.3672,0.6445-0.5508c0.2153-0.1841,0.416-0.3667,0.6016-0.5483
		c0.3921-0.3799,0.6602-0.6812,0.8052-0.9048s0.2178-0.4648,0.2178-0.7241c0-0.2368-0.0781-0.4224-0.2344-0.5562
		c-0.1562-0.1333-0.374-0.2002-0.6538-0.2002c-0.186,0-0.3867,0.0327-0.603,0.0977c-0.2168,0.0654-0.4277,0.1655-0.6343,0.3003
		h-0.0303v-0.6431c0.1445-0.0713,0.3384-0.1367,0.5801-0.1958c0.2422-0.0596,0.4761-0.0889,0.7026-0.0889
		c0.4678,0,0.834,0.1128,1.0996,0.3384c0.2651,0.2256,0.3979,0.5312,0.3979,0.917c0,0.1733-0.022,0.3354-0.0659,0.4854
		s-0.1089,0.2925-0.1943,0.4272c-0.0796,0.1265-0.1729,0.251-0.2803,0.3735c-0.1069,0.1226-0.2373,0.2583-0.3906,0.4072
		c-0.2183,0.2144-0.4438,0.4219-0.6763,0.623c-0.2329,0.2012-0.4502,0.3872-0.6523,0.5591h2.4526V42.1479z"/>
	<path d="M243.2281,39.873c0,0.4141-0.0903,0.7896-0.271,1.1265s-0.4209,0.5981-0.7207,0.7842
		c-0.2085,0.1284-0.4409,0.2212-0.6968,0.2783c-0.2563,0.0576-0.5938,0.0859-1.0122,0.0859h-1.1514v-4.5596h1.1392
		c0.4448,0,0.7988,0.0322,1.061,0.0967c0.2622,0.064,0.4844,0.1523,0.666,0.2646c0.3105,0.1938,0.5522,0.4521,0.7256,0.7749
		C243.1417,39.0469,243.2281,39.4297,243.2281,39.873z M242.5943,39.8638c0-0.3574-0.062-0.6587-0.1865-0.9033
		c-0.1245-0.2451-0.3105-0.438-0.5576-0.5791c-0.1797-0.1021-0.3701-0.1729-0.5723-0.2124c-0.2021-0.04-0.4443-0.0601-0.7261-0.0601
		h-0.5693v3.5186h0.5693c0.292,0,0.5469-0.0215,0.7642-0.0645s0.417-0.1226,0.5986-0.2388c0.2266-0.145,0.3965-0.3359,0.5098-0.5728
		S242.5943,40.2187,242.5943,39.8638z"/>
</g>
<line fill="none" stroke="#000000" stroke-miterlimit="10" x1="316.6966" y1="117.7981" x2="363.7863" y2="68.0809"/>
<path fill="#F2F0F0" stroke="#231F20" stroke-miterlimit="10" d="M247.7589,211.7166h-41.1948c-1.1,0-2-0.9-2-2v-19.7567
	c0-1.1,0.9-2,2-2h41.1948c1.1,0,2,0.9,2,2v19.7567C249.7589,210.8166,248.8589,211.7166,247.7589,211.7166z"/>
<g>
	<path d="M217.7086,199.0913c0,0.1777-0.0415,0.3535-0.124,0.5264c-0.083,0.1738-0.1987,0.3213-0.3477,0.4414
		c-0.1636,0.1309-0.3535,0.2324-0.5713,0.3066c-0.2173,0.0732-0.479,0.1094-0.7852,0.1094c-0.3286,0-0.6245-0.0303-0.8867-0.0918
		c-0.2622-0.0605-0.5293-0.1514-0.8008-0.2725v-0.7588h0.043c0.231,0.1914,0.4971,0.3398,0.7993,0.4434
		c0.3022,0.1045,0.5859,0.1562,0.8511,0.1562c0.376,0,0.668-0.0703,0.8774-0.2109c0.209-0.1406,0.314-0.3291,0.314-0.5635
		c0-0.2021-0.0498-0.3516-0.1484-0.4473c-0.0991-0.0957-0.2495-0.1699-0.4517-0.2236c-0.1533-0.041-0.3193-0.0742-0.4976-0.1006
		c-0.1787-0.0264-0.3682-0.0605-0.5684-0.1016c-0.4043-0.0859-0.7036-0.2314-0.8984-0.4395
		c-0.1953-0.207-0.2925-0.4766-0.2925-0.8096c0-0.3818,0.1611-0.6943,0.4839-0.9385c0.3223-0.2441,0.7314-0.3662,1.2275-0.3662
		c0.3208,0,0.6147,0.0312,0.8818,0.0918c0.2676,0.0615,0.5044,0.1367,0.7104,0.2266v0.7168h-0.0425
		c-0.1738-0.1465-0.4019-0.2686-0.6846-0.3662c-0.2827-0.0967-0.5723-0.1455-0.8682-0.1455c-0.3247,0-0.5854,0.0674-0.7822,0.2021
		c-0.1973,0.1348-0.2954,0.3086-0.2954,0.5205c0,0.1904,0.0488,0.3389,0.147,0.4473c0.0977,0.1084,0.2705,0.1914,0.5171,0.248
		c0.1309,0.0283,0.3164,0.0635,0.5576,0.1045c0.2407,0.041,0.4448,0.082,0.6123,0.125c0.3389,0.0898,0.5942,0.2256,0.7656,0.4072
		S217.7086,198.7651,217.7086,199.0913z"/>
	<path d="M221.1656,200.1782c-0.1919,0.0918-0.374,0.1641-0.5464,0.2148c-0.1729,0.0508-0.356,0.0762-0.5498,0.0762
		c-0.2471,0-0.4736-0.0361-0.6797-0.1084s-0.3828-0.1826-0.5298-0.3291c-0.1489-0.1475-0.2646-0.333-0.3462-0.5576
		s-0.1226-0.4863-0.1226-0.7871c0-0.5596,0.1538-0.998,0.4609-1.3164s0.7129-0.4775,1.2173-0.4775
		c0.1958,0,0.3882,0.0273,0.5771,0.082c0.189,0.0557,0.3618,0.123,0.519,0.2021v0.6406h-0.0308
		c-0.1753-0.1367-0.3564-0.2422-0.5435-0.3154c-0.1865-0.0742-0.3687-0.1104-0.5464-0.1104c-0.3267,0-0.5845,0.1094-0.7734,0.3291
		c-0.1885,0.2197-0.2832,0.541-0.2832,0.9658c0,0.4131,0.0923,0.7295,0.2773,0.9512c0.1846,0.2217,0.4443,0.332,0.7793,0.332
		c0.1162,0,0.2349-0.0156,0.355-0.0459c0.1206-0.0303,0.229-0.0703,0.3247-0.1191c0.0835-0.043,0.1621-0.0889,0.2358-0.1367
		s0.1318-0.0889,0.1743-0.124h0.0308V200.1782z"/>
	<path d="M224.7667,198.7427h-2.52c0,0.21,0.0312,0.3936,0.0947,0.5498c0.063,0.1553,0.1499,0.2842,0.2603,0.3838
		c0.106,0.0977,0.2324,0.1719,0.3779,0.2207c0.146,0.0488,0.3071,0.0732,0.4824,0.0732c0.2329,0,0.4673-0.0459,0.7026-0.1396
		c0.2358-0.0928,0.4038-0.1836,0.5039-0.2734h0.0308v0.6279c-0.1938,0.0811-0.3921,0.1494-0.5942,0.2051
		c-0.2021,0.0547-0.4146,0.082-0.6367,0.082c-0.5679,0-1.0107-0.1533-1.3291-0.4609c-0.3184-0.3066-0.4775-0.7432-0.4775-1.3086
		c0-0.5596,0.1523-1.0029,0.4575-1.332s0.707-0.4932,1.2051-0.4932c0.4614,0,0.8169,0.1348,1.0674,0.4043
		c0.25,0.2695,0.375,0.6523,0.375,1.1484V198.7427z M224.2062,198.3013c-0.002-0.3018-0.0781-0.5361-0.228-0.7012
		s-0.3784-0.248-0.6846-0.248c-0.3081,0-0.5537,0.0908-0.7363,0.2725s-0.2861,0.4072-0.3105,0.6768H224.2062z"/>
	<path d="M228.4991,200.3931h-0.5757v-1.9473c0-0.1572-0.0088-0.3047-0.0273-0.4434c-0.0186-0.1377-0.0522-0.2451-0.1011-0.3223
		c-0.0508-0.0859-0.1245-0.1494-0.2202-0.1914c-0.0962-0.042-0.2207-0.0635-0.374-0.0635c-0.1572,0-0.3213,0.0391-0.4927,0.1172
		c-0.1714,0.0771-0.3359,0.1758-0.4932,0.2969v2.5537h-0.5757v-3.4209h0.5757v0.3799c0.1797-0.1484,0.3652-0.2656,0.5576-0.3486
		c0.1914-0.084,0.3887-0.126,0.5908-0.126c0.3696,0,0.6509,0.1113,0.8452,0.334c0.1938,0.2227,0.2905,0.543,0.2905,0.9609V200.3931z
		"/>
	<path d="M232.4708,198.7427h-2.52c0,0.21,0.0312,0.3936,0.0947,0.5498c0.063,0.1553,0.1499,0.2842,0.2603,0.3838
		c0.106,0.0977,0.2324,0.1719,0.3779,0.2207c0.146,0.0488,0.3071,0.0732,0.4824,0.0732c0.2329,0,0.4673-0.0459,0.7026-0.1396
		c0.2358-0.0928,0.4038-0.1836,0.5039-0.2734h0.0308v0.6279c-0.1938,0.0811-0.3921,0.1494-0.5942,0.2051
		c-0.2021,0.0547-0.4146,0.082-0.6367,0.082c-0.5679,0-1.0107-0.1533-1.3291-0.4609c-0.3184-0.3066-0.4775-0.7432-0.4775-1.3086
		c0-0.5596,0.1523-1.0029,0.4575-1.332s0.707-0.4932,1.2051-0.4932c0.4614,0,0.8169,0.1348,1.0674,0.4043
		c0.25,0.2695,0.375,0.6523,0.375,1.1484V198.7427z M231.9103,198.3013c-0.002-0.3018-0.0781-0.5361-0.228-0.7012
		s-0.3784-0.248-0.6846-0.248c-0.3081,0-0.5537,0.0908-0.7363,0.2725s-0.2861,0.4072-0.3105,0.6768H231.9103z"/>
	<path d="M235.9552,198.1977c0.0981,0.0869,0.1787,0.1973,0.2422,0.3301c0.063,0.1328,0.0947,0.3047,0.0947,0.5146
		c0,0.208-0.0376,0.3994-0.1133,0.5723c-0.0752,0.1738-0.1816,0.3252-0.3184,0.4531c-0.1528,0.1436-0.333,0.249-0.5405,0.3174
		c-0.207,0.0684-0.4341,0.1025-0.6812,0.1025c-0.2534,0-0.5024-0.0303-0.7471-0.0908c-0.2451-0.0596-0.4463-0.126-0.6035-0.1973
		V199.56h0.0459c0.1738,0.1143,0.3779,0.209,0.6128,0.2842c0.2344,0.0762,0.4609,0.1133,0.6797,0.1133
		c0.1284,0,0.2651-0.0205,0.4102-0.0635s0.2622-0.1064,0.3521-0.1904c0.0942-0.0898,0.1641-0.1885,0.21-0.2969
		s0.0688-0.2451,0.0688-0.4102c0-0.1631-0.0259-0.2988-0.0781-0.4062c-0.0522-0.1064-0.124-0.1914-0.2158-0.252
		c-0.0918-0.0635-0.2031-0.1064-0.334-0.1299c-0.1304-0.0244-0.2715-0.0361-0.4224-0.0361h-0.2754v-0.5078h0.2144
		c0.3101,0,0.5576-0.0645,0.7422-0.1943c0.1851-0.1299,0.2773-0.3193,0.2773-0.5684c0-0.1104-0.0234-0.2061-0.0703-0.2891
		c-0.0474-0.083-0.1123-0.1504-0.1963-0.2041c-0.0879-0.0527-0.1816-0.0898-0.2817-0.1104
		c-0.1001-0.0195-0.2134-0.0303-0.3398-0.0303c-0.1938,0-0.3999,0.0352-0.6187,0.1045c-0.2183,0.0693-0.4243,0.167-0.6182,0.2939
		H233.42v-0.6406c0.145-0.0713,0.3384-0.1367,0.5801-0.1973c0.2422-0.0596,0.4766-0.0898,0.7031-0.0898
		c0.2222,0,0.4185,0.0205,0.5879,0.0605c0.1694,0.041,0.3223,0.1064,0.459,0.1963c0.147,0.0977,0.2583,0.2168,0.334,0.3555
		s0.1133,0.3008,0.1133,0.4863c0,0.2539-0.0894,0.4746-0.2681,0.6631c-0.1787,0.1895-0.3892,0.3076-0.6323,0.3564v0.043
		c0.0981,0.0166,0.2104,0.0508,0.3369,0.1025C235.7604,198.0552,235.8678,198.1196,235.9552,198.1977z"/>
	<path d="M241.2281,198.1177c0,0.4141-0.0903,0.79-0.271,1.127s-0.4209,0.5977-0.7207,0.7842
		c-0.2085,0.1279-0.4409,0.2207-0.6968,0.2783c-0.2563,0.0576-0.5938,0.0859-1.0122,0.0859h-1.1514v-4.5596h1.1392
		c0.4448,0,0.7988,0.0322,1.061,0.0967c0.2622,0.0635,0.4844,0.1523,0.666,0.2646c0.3105,0.1934,0.5522,0.4521,0.7256,0.7744
		C241.1417,197.2915,241.2281,197.6743,241.2281,198.1177z M240.5943,198.1089c0-0.3574-0.062-0.6592-0.1865-0.9033
		c-0.1245-0.2451-0.3105-0.4385-0.5576-0.5791c-0.1797-0.1025-0.3701-0.1729-0.5723-0.2129s-0.4443-0.0596-0.7261-0.0596h-0.5693
		v3.5186h0.5693c0.292,0,0.5469-0.0215,0.7642-0.0645s0.417-0.123,0.5986-0.2393c0.2266-0.1445,0.3965-0.3359,0.5098-0.5723
		C240.5377,198.7593,240.5943,198.4634,240.5943,198.1089z"/>
</g>
<line fill="none" stroke="#000000" stroke-miterlimit="10" x1="249.7589" y1="199.3257" x2="272.4062" y2="199.3257"/>
<line fill="none" stroke="#000000" stroke-miterlimit="10" x1="181.9169" y1="122.0495" x2="205.5641" y2="39.2173"/>
<line fill="none" stroke="#000000" stroke-miterlimit="10" x1="204.0261" y1="200.3931" x2="181.3788" y2="139.1125"/>
<path fill="#F2F0F0" stroke="#231F20" stroke-miterlimit="10" d="M315.6009,141.2233h-41.1948c-1.1,0-2-0.9-2-2v-19.7567
	c0-1.1,0.9-2,2-2h41.1948c1.1,0,2,0.9,2,2v19.7567C317.6009,140.3233,316.7009,141.2233,315.6009,141.2233z"/>
<g>
	<path d="M289.0714,129.4971c0,0.2266-0.043,0.4268-0.1289,0.6001c-0.0854,0.1733-0.2007,0.3164-0.3457,0.4287
		c-0.1714,0.1348-0.3599,0.2305-0.5649,0.2876c-0.2051,0.0576-0.4663,0.0859-0.7827,0.0859h-1.6167v-4.5596h1.3506
		c0.3325,0,0.5815,0.0122,0.7471,0.0366c0.1655,0.0249,0.3237,0.0757,0.4746,0.1533c0.1675,0.0879,0.2891,0.2007,0.3643,0.3384
		c0.0757,0.1377,0.1133,0.3027,0.1133,0.4946c0,0.2163-0.0552,0.4004-0.165,0.5527c-0.1104,0.1519-0.2573,0.2739-0.4409,0.3657
		v0.0244c0.3081,0.0635,0.5508,0.1987,0.7285,0.4058C288.9825,128.9189,289.0714,129.1806,289.0714,129.4971z M288.0514,127.4424
		c0-0.1104-0.0181-0.2031-0.0547-0.2788c-0.0371-0.0752-0.0962-0.1367-0.1777-0.1836c-0.0962-0.0552-0.2124-0.0894-0.3491-0.1025
		s-0.3062-0.02-0.5083-0.02h-0.7227v1.3169h0.7837c0.1899,0,0.3413-0.0098,0.4531-0.0293c0.1123-0.0195,0.2168-0.0596,0.3125-0.1211
		c0.0962-0.061,0.1641-0.1401,0.2036-0.2373C288.0319,127.6899,288.0514,127.5752,288.0514,127.4424z M288.4406,129.5215
		c0-0.1836-0.0278-0.3296-0.0825-0.438c-0.0552-0.1079-0.1553-0.1997-0.3003-0.2754c-0.0981-0.0513-0.2168-0.0845-0.3569-0.0996
		c-0.1396-0.0151-0.3096-0.0229-0.5098-0.0229h-0.9521v1.6963h0.8022c0.2651,0,0.4829-0.0137,0.6523-0.041
		c0.1694-0.0278,0.3081-0.0781,0.4165-0.1519c0.1143-0.0796,0.1978-0.1704,0.251-0.2725S288.4406,129.6826,288.4406,129.5215z"/>
	<path d="M292.5441,130.8994h-0.5728v-0.3643c-0.0513,0.0347-0.1201,0.083-0.2065,0.1455c-0.0869,0.062-0.1714,0.1118-0.2529,0.1484
		c-0.0957,0.0469-0.2061,0.0859-0.3306,0.1177s-0.2705,0.0474-0.438,0.0474c-0.3081,0-0.5693-0.1021-0.7837-0.3062
		s-0.3218-0.4644-0.3218-0.7808c0-0.2593,0.0557-0.4688,0.167-0.6294c0.1113-0.1602,0.27-0.2861,0.4761-0.3779
		c0.2085-0.0918,0.4585-0.1543,0.7505-0.187c0.2915-0.0322,0.605-0.0571,0.9399-0.0732v-0.0889
		c0-0.1309-0.0229-0.2388-0.0688-0.3247c-0.0459-0.0854-0.1118-0.1528-0.1978-0.2021c-0.0815-0.0469-0.1797-0.0786-0.2939-0.0947
		s-0.2339-0.0244-0.3584-0.0244c-0.1509,0-0.3193,0.02-0.5049,0.0596c-0.186,0.04-0.3779,0.0977-0.5757,0.1729h-0.0308v-0.5845
		c0.1123-0.0308,0.2744-0.0645,0.4868-0.1011c0.2124-0.0371,0.4214-0.0552,0.6279-0.0552c0.2407,0,0.4507,0.02,0.6289,0.0596
		c0.1787,0.04,0.3335,0.1079,0.4644,0.2036c0.1284,0.0938,0.2266,0.2153,0.2939,0.3643c0.0674,0.1494,0.1011,0.334,0.1011,0.5542
		V130.8994z M291.9713,130.0571v-0.9521c-0.1758,0.0103-0.3823,0.0254-0.6201,0.0459s-0.4263,0.0503-0.5649,0.0889
		c-0.1655,0.0469-0.2993,0.1201-0.4014,0.2188c-0.1021,0.0991-0.1528,0.2354-0.1528,0.4092c0,0.1958,0.0591,0.3433,0.1777,0.4424
		c0.1182,0.0991,0.2988,0.1484,0.542,0.1484c0.2017,0,0.3867-0.0391,0.5542-0.1177
		C291.673,130.2622,291.8282,130.1675,291.9713,130.0571z"/>
	<path d="M296.0958,129.9136c0,0.312-0.1294,0.5684-0.3877,0.7686s-0.6108,0.2998-1.0576,0.2998
		c-0.2534,0-0.4854-0.0298-0.6968-0.0903c-0.2114-0.0601-0.3887-0.126-0.5312-0.1973v-0.646h0.0308
		c0.1816,0.1367,0.3833,0.2451,0.606,0.3257c0.2227,0.0811,0.436,0.1211,0.6401,0.1211c0.2529,0,0.4512-0.0405,0.5942-0.1226
		c0.1426-0.0815,0.2144-0.21,0.2144-0.3857c0-0.1348-0.0391-0.2368-0.1167-0.3062s-0.2266-0.1284-0.4468-0.1777
		c-0.082-0.0181-0.1885-0.0396-0.3203-0.064c-0.1313-0.0249-0.2515-0.0513-0.3599-0.0796
		c-0.2998-0.0796-0.5127-0.1968-0.6382-0.3506c-0.1255-0.1543-0.1885-0.3438-0.1885-0.5684c0-0.1406,0.0293-0.2734,0.0874-0.3979
		s0.1465-0.2358,0.2646-0.334c0.1143-0.0957,0.2598-0.1719,0.4365-0.228s0.374-0.084,0.5923-0.084
		c0.2046,0,0.4111,0.0249,0.6201,0.0747c0.2095,0.0503,0.3833,0.1108,0.5225,0.1826v0.6152h-0.0308
		c-0.147-0.1079-0.3257-0.1997-0.5361-0.2739c-0.21-0.0747-0.416-0.1118-0.6182-0.1118c-0.2104,0-0.3882,0.04-0.5327,0.1211
		c-0.145,0.0806-0.2178,0.2002-0.2178,0.3594c0,0.1411,0.0439,0.2471,0.1318,0.3188c0.0859,0.0713,0.2246,0.1294,0.4165,0.1743
		c0.106,0.0244,0.2251,0.0488,0.3564,0.0737c0.1318,0.0244,0.2417,0.0469,0.3296,0.0674c0.2671,0.061,0.4731,0.166,0.6182,0.3154
		C296.0231,129.4643,296.0958,129.6645,296.0958,129.9136z"/>
	<path d="M297.5382,126.9062h-0.6494v-0.5972h0.6494V126.9062z M297.5016,130.8994h-0.5757v-3.4204h0.5757V130.8994z"/>
	<path d="M301.5001,130.8994h-0.5757v-1.9473c0-0.1572-0.0088-0.3047-0.0273-0.4429c-0.0186-0.1377-0.0522-0.2451-0.1011-0.3228
		c-0.0508-0.0859-0.1245-0.1494-0.2202-0.1914c-0.0962-0.042-0.2207-0.063-0.374-0.063c-0.1572,0-0.3213,0.0391-0.4927,0.1167
		c-0.1714,0.0771-0.3359,0.1763-0.4932,0.2969v2.5537h-0.5757v-3.4204h0.5757v0.3799c0.1797-0.1489,0.3652-0.2656,0.5576-0.3491
		c0.1914-0.084,0.3887-0.1255,0.5908-0.1255c0.3696,0,0.6509,0.1113,0.8452,0.3335c0.1938,0.2227,0.2905,0.543,0.2905,0.9614
		V130.8994z"/>
</g>
<line fill="none" stroke="#000000" stroke-miterlimit="10" x1="317.6009" y1="129.8324" x2="363.7863" y2="129.8324"/>
<path fill="#F2F0F0" stroke="#231F20" stroke-miterlimit="10" d="M406.981,141.1125h-41.1948c-1.1,0-2-0.9-2-2v-19.7567
	c0-1.1,0.9-2,2-2h41.1948c1.1,0,2,0.9,2,2v19.7567C408.981,140.2125,408.081,141.1125,406.981,141.1125z"/>
<g>
	<path d="M375.2218,128.8735c0,0.2266-0.043,0.4268-0.1289,0.6001s-0.2012,0.3164-0.3457,0.4287
		c-0.1719,0.1348-0.3604,0.2305-0.5654,0.2876c-0.2051,0.0576-0.4658,0.0859-0.7822,0.0859h-1.6172v-4.5596h1.3506
		c0.333,0,0.582,0.0122,0.7471,0.0366c0.166,0.0249,0.3242,0.0757,0.4746,0.1533c0.168,0.0879,0.2891,0.2007,0.3643,0.3384
		c0.0762,0.1377,0.1133,0.3027,0.1133,0.4946c0,0.2163-0.0547,0.4004-0.165,0.5527c-0.1104,0.1519-0.2568,0.2739-0.4404,0.3657
		v0.0244c0.3076,0.0635,0.5508,0.1987,0.7285,0.4058C375.1329,128.2954,375.2218,128.5571,375.2218,128.8735z M374.2013,126.8188
		c0-0.1104-0.0176-0.2031-0.0547-0.2788c-0.0371-0.0752-0.0957-0.1367-0.1777-0.1836c-0.0957-0.0552-0.2119-0.0894-0.3486-0.1025
		s-0.3066-0.02-0.5088-0.02h-0.7227v1.3169h0.7842c0.1895,0,0.3408-0.0098,0.4531-0.0293s0.2168-0.0596,0.3125-0.1211
		c0.0957-0.061,0.1641-0.1401,0.2031-0.2373C374.1818,127.0664,374.2013,126.9516,374.2013,126.8188z M374.5909,128.8979
		c0-0.1836-0.0283-0.3296-0.083-0.438c-0.0547-0.1079-0.1553-0.1997-0.2998-0.2754c-0.0986-0.0513-0.2168-0.0845-0.3574-0.0996
		c-0.1396-0.0151-0.3096-0.0229-0.5098-0.0229h-0.9521v1.6963h0.8027c0.2646,0,0.4824-0.0137,0.6523-0.041
		c0.1689-0.0278,0.3076-0.0781,0.416-0.1519c0.1143-0.0796,0.1982-0.1704,0.251-0.2725
		C374.5646,129.1909,374.5909,129.0591,374.5909,128.8979z"/>
	<path d="M378.6945,130.2759h-0.5732v-0.3643c-0.0508,0.0347-0.1201,0.083-0.2061,0.1455c-0.0869,0.062-0.1719,0.1118-0.2529,0.1484
		c-0.0957,0.0469-0.2061,0.0859-0.3311,0.1177c-0.124,0.0317-0.2705,0.0474-0.4375,0.0474c-0.3086,0-0.5693-0.1021-0.7842-0.3062
		c-0.2139-0.2041-0.3213-0.4644-0.3213-0.7808c0-0.2593,0.0557-0.4688,0.167-0.6294c0.1113-0.1602,0.2695-0.2861,0.4756-0.3779
		c0.209-0.0918,0.459-0.1543,0.751-0.187c0.291-0.0322,0.6045-0.0571,0.9395-0.0732v-0.0889c0-0.1309-0.0225-0.2388-0.0684-0.3247
		c-0.0459-0.0854-0.1123-0.1528-0.1982-0.2021c-0.0811-0.0469-0.1797-0.0786-0.2939-0.0947s-0.2334-0.0244-0.3584-0.0244
		c-0.1504,0-0.3193,0.02-0.5049,0.0596c-0.1855,0.04-0.3779,0.0977-0.5752,0.1729h-0.0312v-0.5845
		c0.1123-0.0308,0.2744-0.0645,0.4873-0.1011c0.2119-0.0371,0.4209-0.0552,0.6279-0.0552c0.2402,0,0.4502,0.02,0.6289,0.0596
		c0.1787,0.04,0.333,0.1079,0.4639,0.2036c0.1289,0.0938,0.2266,0.2153,0.2939,0.3643c0.0674,0.1494,0.1016,0.334,0.1016,0.5542
		V130.2759z M378.1212,129.4336v-0.9521c-0.1758,0.0103-0.3818,0.0254-0.6201,0.0459c-0.2373,0.0205-0.4258,0.0503-0.5645,0.0889
		c-0.166,0.0469-0.2998,0.1201-0.4014,0.2188c-0.1025,0.0991-0.1533,0.2354-0.1533,0.4092c0,0.1958,0.0596,0.3433,0.1777,0.4424
		s0.2988,0.1484,0.542,0.1484c0.2021,0,0.3867-0.0391,0.5547-0.1177C377.8234,129.6387,377.9786,129.5439,378.1212,129.4336z"/>
	<path d="M382.2462,129.29c0,0.312-0.1299,0.5684-0.3877,0.7686c-0.2588,0.2002-0.6113,0.2998-1.0576,0.2998
		c-0.2539,0-0.4854-0.0298-0.6973-0.0903c-0.2109-0.0601-0.3887-0.126-0.5312-0.1973v-0.646h0.0312
		c0.1816,0.1367,0.3828,0.2451,0.6055,0.3257c0.2227,0.0811,0.4365,0.1211,0.6406,0.1211c0.2529,0,0.4512-0.0405,0.5938-0.1226
		c0.1426-0.0815,0.2148-0.21,0.2148-0.3857c0-0.1348-0.0391-0.2368-0.1172-0.3062c-0.0771-0.0693-0.2266-0.1284-0.4463-0.1777
		c-0.082-0.0181-0.1885-0.0396-0.3203-0.064c-0.1318-0.0249-0.252-0.0513-0.3604-0.0796c-0.2998-0.0796-0.5127-0.1968-0.6377-0.3506
		c-0.126-0.1543-0.1885-0.3438-0.1885-0.5684c0-0.1406,0.0293-0.2734,0.0869-0.3979c0.0586-0.1245,0.1465-0.2358,0.2646-0.334
		c0.1143-0.0957,0.2598-0.1719,0.4365-0.228s0.374-0.084,0.5928-0.084c0.2041,0,0.4111,0.0249,0.6201,0.0747
		c0.209,0.0503,0.3828,0.1108,0.5225,0.1826v0.6152h-0.0312c-0.1465-0.1079-0.3252-0.1997-0.5361-0.2739
		c-0.21-0.0747-0.416-0.1118-0.6182-0.1118c-0.21,0-0.3877,0.04-0.5322,0.1211c-0.1455,0.0806-0.2178,0.2002-0.2178,0.3594
		c0,0.1411,0.0439,0.2471,0.1318,0.3188c0.0859,0.0713,0.2246,0.1294,0.416,0.1743c0.1064,0.0244,0.2256,0.0488,0.3564,0.0737
		c0.1318,0.0244,0.2422,0.0469,0.3301,0.0674c0.2666,0.061,0.4727,0.166,0.6182,0.3154
		C382.173,128.8408,382.2462,129.041,382.2462,129.29z"/>
	<path d="M383.6886,126.2827h-0.6494v-0.5972h0.6494V126.2827z M383.6515,130.2759h-0.5752v-3.4204h0.5752V130.2759z"/>
	<path d="M387.6505,130.2759h-0.5762v-1.9473c0-0.1572-0.0088-0.3047-0.0273-0.4429c-0.0186-0.1377-0.0518-0.2451-0.1006-0.3228
		c-0.0508-0.0859-0.125-0.1494-0.2207-0.1914s-0.2207-0.063-0.374-0.063c-0.1572,0-0.3213,0.0391-0.4922,0.1167
		c-0.1719,0.0771-0.3359,0.1763-0.4932,0.2969v2.5537h-0.5762v-3.4204h0.5762v0.3799c0.1797-0.1489,0.3652-0.2656,0.5576-0.3491
		c0.1914-0.084,0.3887-0.1255,0.5908-0.1255c0.3691,0,0.6504,0.1113,0.8447,0.3335c0.1943,0.2227,0.291,0.543,0.291,0.9614V130.2759
		z"/>
	<path d="M392.0568,126.2554h-1.6289v4.0205h-0.6064v-4.0205h-1.6289v-0.5391h3.8643V126.2554z"/>
	<path d="M395.5382,128.5674c0,0.5571-0.1426,0.9971-0.4287,1.3198c-0.2852,0.3223-0.668,0.4834-1.1475,0.4834
		c-0.4844,0-0.8682-0.1611-1.1533-0.4834c-0.2852-0.3228-0.4268-0.7627-0.4268-1.3198c0-0.5576,0.1416-0.998,0.4268-1.3213
		c0.2852-0.3237,0.6689-0.4854,1.1533-0.4854c0.4795,0,0.8623,0.1616,1.1475,0.4854
		C395.3956,127.5693,395.5382,128.0098,395.5382,128.5674z M394.9445,128.5674c0-0.4429-0.0869-0.7725-0.2598-0.9878
		c-0.1738-0.2153-0.415-0.3228-0.7227-0.3228c-0.3125,0-0.5547,0.1074-0.7275,0.3228s-0.2588,0.5449-0.2588,0.9878
		c0,0.4287,0.0869,0.7534,0.2598,0.9751c0.1738,0.2217,0.416,0.332,0.7266,0.332c0.3057,0,0.5459-0.1094,0.7207-0.3291
		C394.8575,129.3262,394.9445,129,394.9445,128.5674z"/>
	<path d="M399.4396,128.5244c0,0.2778-0.04,0.5312-0.1191,0.7607c-0.0801,0.23-0.1924,0.4243-0.3369,0.5835
		c-0.1348,0.1509-0.2939,0.2681-0.4766,0.3506s-0.376,0.124-0.5801,0.124c-0.1777,0-0.3379-0.0195-0.4824-0.0581
		c-0.1436-0.0391-0.29-0.0991-0.4395-0.1807v1.4331h-0.5752v-4.6821h0.5752v0.3584c0.1533-0.1289,0.3252-0.2363,0.5166-0.3232
		c0.1904-0.0864,0.3945-0.1299,0.6104-0.1299c0.4121,0,0.7334,0.1558,0.9629,0.4668
		C399.3253,127.539,399.4396,127.9712,399.4396,128.5244z M398.8458,128.5395c0-0.4121-0.0703-0.7207-0.2119-0.9248
		c-0.1406-0.2041-0.3564-0.3062-0.6484-0.3062c-0.166,0-0.332,0.0356-0.499,0.1074c-0.168,0.0713-0.3281,0.165-0.4814,0.2817v1.938
		c0.1641,0.0737,0.3037,0.1235,0.4209,0.1504c0.1182,0.0264,0.251,0.0396,0.4004,0.0396c0.3203,0,0.5703-0.1079,0.75-0.3247
		C398.756,129.2847,398.8458,128.9643,398.8458,128.5395z"/>
	<path d="M403.2521,128.5674c0,0.5571-0.1426,0.9971-0.4287,1.3198c-0.2861,0.3223-0.6689,0.4834-1.1484,0.4834
		c-0.4834,0-0.8682-0.1611-1.1523-0.4834c-0.2852-0.3228-0.4277-0.7627-0.4277-1.3198c0-0.5576,0.1426-0.998,0.4277-1.3213
		c0.2842-0.3237,0.6689-0.4854,1.1523-0.4854c0.4795,0,0.8623,0.1616,1.1484,0.4854
		C403.1095,127.5693,403.2521,128.0098,403.2521,128.5674z M402.6583,128.5674c0-0.4429-0.0869-0.7725-0.2607-0.9878
		s-0.4141-0.3228-0.7227-0.3228c-0.3125,0-0.5547,0.1074-0.7275,0.3228c-0.1719,0.2153-0.2588,0.5449-0.2588,0.9878
		c0,0.4287,0.0869,0.7534,0.2607,0.9751s0.415,0.332,0.7256,0.332c0.3066,0,0.5469-0.1094,0.7217-0.3291
		C402.5704,129.3262,402.6583,129,402.6583,128.5674z"/>
</g>
<path fill="#F2F0F0" stroke="#231F20" stroke-miterlimit="10" d="M406.981,79.9593h-41.1948c-1.1,0-2-0.9-2-2V58.2025
	c0-1.1,0.9-2,2-2h41.1948c1.1,0,2,0.9,2,2v19.7567C408.981,79.0593,408.081,79.9593,406.981,79.9593z"/>
<g>
	<path d="M382.5431,69.6352h-0.6064v-3.9287l-1.2676,2.6733h-0.3613l-1.2588-2.6733v3.9287h-0.5664v-4.5596h0.8271l1.2158,2.5386
		l1.1758-2.5386h0.8418V69.6352z"/>
	<path d="M386.38,69.6352h-0.5723V69.271c-0.0518,0.0347-0.1201,0.083-0.207,0.1455c-0.0869,0.062-0.1709,0.1118-0.2529,0.1484
		c-0.0957,0.0469-0.2061,0.0859-0.3301,0.1177c-0.125,0.0317-0.2705,0.0474-0.4385,0.0474c-0.3076,0-0.5693-0.1021-0.7832-0.3062
		c-0.2148-0.2041-0.3223-0.4644-0.3223-0.7808c0-0.2593,0.0557-0.4688,0.167-0.6294c0.1113-0.1602,0.2705-0.2861,0.4766-0.3779
		c0.208-0.0918,0.458-0.1543,0.75-0.187c0.292-0.0322,0.6055-0.0571,0.9404-0.0732v-0.0889c0-0.1309-0.0234-0.2388-0.0693-0.3247
		c-0.0459-0.0854-0.1113-0.1528-0.1973-0.2021c-0.082-0.0469-0.1797-0.0786-0.2939-0.0947s-0.2344-0.0244-0.3584-0.0244
		c-0.1514,0-0.3193,0.02-0.5049,0.0596c-0.1865,0.04-0.3779,0.0977-0.5762,0.1729h-0.0303v-0.5845
		c0.1123-0.0308,0.2744-0.0645,0.4863-0.1011c0.2129-0.0371,0.4219-0.0552,0.6279-0.0552c0.2412,0,0.4512,0.02,0.6289,0.0596
		c0.1787,0.04,0.334,0.1079,0.4648,0.2036c0.1279,0.0938,0.2266,0.2153,0.2939,0.3643c0.0674,0.1494,0.1006,0.334,0.1006,0.5542
		V69.6352z M385.8077,68.793v-0.9521c-0.1758,0.0103-0.3828,0.0254-0.6201,0.0459c-0.2383,0.0205-0.4268,0.0503-0.5654,0.0889
		c-0.165,0.0469-0.2988,0.1201-0.4014,0.2188c-0.1016,0.0991-0.1523,0.2354-0.1523,0.4092c0,0.1958,0.0586,0.3433,0.1777,0.4424
		c0.1182,0.0991,0.2988,0.1484,0.542,0.1484c0.2012,0,0.3867-0.0391,0.5537-0.1177S385.6642,68.9033,385.8077,68.793z"/>
	<path d="M389.9689,69.6352h-2.7617v-0.4258l1.9932-2.5137h-1.9502v-0.481h2.667v0.4102l-2.0029,2.5234h2.0547V69.6352z"/>
	<path d="M393.6466,67.9848h-2.5205c0,0.21,0.0312,0.3936,0.0947,0.5498c0.0635,0.1558,0.1504,0.2842,0.2607,0.3843
		c0.1055,0.0977,0.2324,0.1714,0.3779,0.2202s0.3066,0.0737,0.4824,0.0737c0.2324,0,0.4668-0.0464,0.7021-0.1396
		c0.2363-0.0928,0.4043-0.1841,0.5039-0.2739h0.0312v0.6279c-0.1943,0.0815-0.3926,0.1499-0.5947,0.2051
		s-0.4141,0.0825-0.6367,0.0825c-0.5674,0-1.0107-0.1533-1.3291-0.4609c-0.3184-0.3071-0.4775-0.7437-0.4775-1.3091
		c0-0.5591,0.1523-1.0029,0.458-1.332c0.3047-0.3286,0.707-0.4927,1.2051-0.4927c0.4609,0,0.8164,0.1348,1.0674,0.4038
		c0.25,0.2695,0.375,0.6523,0.375,1.1484V67.9848z M393.0861,67.5439c-0.002-0.3022-0.0781-0.5361-0.2285-0.7012
		c-0.1494-0.1655-0.3779-0.248-0.6846-0.248c-0.3076,0-0.5537,0.0908-0.7363,0.2725s-0.2861,0.4072-0.3105,0.6768H393.0861z"/>
</g>
<line fill="none" stroke="#000000" stroke-miterlimit="10" x1="408.981" y1="67.5684" x2="434.2262" y2="67.5684"/>
<g>
	
		<rect x="278.189" y="191.7639" fill="#F2F0F0" stroke="#231F20" stroke-width="0.5" stroke-miterlimit="10" width="45.7328" height="23.7567"/>
	
		<rect x="275.2433" y="188.806" fill="#F2F0F0" stroke="#231F20" stroke-width="0.5" stroke-miterlimit="10" width="45.7328" height="23.7567"/>
	
		<rect x="272.4062" y="185.4531" fill="#FFFFFF" stroke="#231F20" stroke-width="0.5" stroke-miterlimit="10" width="45.7328" height="23.7567"/>
</g>
<g>
	<path d="M287.7096,190.7016l-1.6597,4.5596h-0.8086l-1.6597-4.5596h0.6494l1.4297,4.0117l1.4302-4.0117H287.7096z"/>
	<path d="M291.2189,193.6108h-2.52c0,0.21,0.0312,0.3936,0.0947,0.5498c0.063,0.1562,0.1499,0.2842,0.2603,0.3848
		c0.106,0.0977,0.2324,0.1709,0.3779,0.2197c0.146,0.0488,0.3071,0.0742,0.4824,0.0742c0.2329,0,0.4673-0.0469,0.7026-0.1396
		c0.2358-0.0928,0.4038-0.1846,0.5039-0.2744h0.0308v0.6279c-0.1938,0.082-0.3921,0.1504-0.5942,0.2051
		c-0.2021,0.0557-0.4146,0.083-0.6367,0.083c-0.5679,0-1.0107-0.1533-1.3291-0.4609s-0.4775-0.7441-0.4775-1.3096
		c0-0.5586,0.1523-1.0029,0.4575-1.332c0.3052-0.3281,0.707-0.4922,1.2051-0.4922c0.4614,0,0.8169,0.1348,1.0674,0.4033
		c0.25,0.2695,0.375,0.6523,0.375,1.1484V193.6108z M290.6583,193.1704c-0.002-0.3027-0.0781-0.5361-0.228-0.7012
		c-0.1499-0.166-0.3784-0.248-0.6846-0.248c-0.3081,0-0.5537,0.0908-0.7363,0.2725s-0.2861,0.4072-0.3105,0.6768H290.6583z"/>
	<path d="M294.2257,192.4692h-0.0308c-0.0854-0.0205-0.1689-0.0352-0.2495-0.0449c-0.0806-0.0088-0.1758-0.0137-0.2861-0.0137
		c-0.1777,0-0.3491,0.0391-0.5146,0.1182c-0.165,0.0781-0.3242,0.1797-0.4775,0.3047v2.4277h-0.5757v-3.4199h0.5757v0.5049
		c0.2285-0.1836,0.4302-0.3135,0.605-0.3906c0.1743-0.0762,0.3525-0.1143,0.5342-0.1143c0.1001,0,0.1724,0.002,0.2173,0.0078
		c0.0449,0.0049,0.1123,0.0146,0.2021,0.0283V192.4692z"/>
	<path d="M296.5436,195.2309c-0.1079,0.0283-0.2261,0.0518-0.3535,0.0703s-0.2412,0.0273-0.3413,0.0273
		c-0.3491,0-0.6147-0.0938-0.7964-0.2812c-0.1816-0.1885-0.2725-0.4893-0.2725-0.9033v-1.8193h-0.3887v-0.4834h0.3887v-0.9834
		h0.5757v0.9834h1.188v0.4834h-1.188v1.5586c0,0.1797,0.0044,0.3203,0.0122,0.4209c0.0083,0.1016,0.0371,0.1963,0.0859,0.2832
		c0.0449,0.082,0.1064,0.1416,0.1851,0.1797s0.1987,0.0566,0.3599,0.0566c0.0938,0,0.1919-0.0137,0.2939-0.041
		c0.1021-0.0283,0.1758-0.0508,0.2207-0.0693h0.0303V195.2309z"/>
	<path d="M300.1017,193.6108h-2.52c0,0.21,0.0312,0.3936,0.0947,0.5498c0.063,0.1562,0.1499,0.2842,0.2603,0.3848
		c0.106,0.0977,0.2324,0.1709,0.3779,0.2197c0.146,0.0488,0.3071,0.0742,0.4824,0.0742c0.2329,0,0.4673-0.0469,0.7026-0.1396
		c0.2358-0.0928,0.4038-0.1846,0.5039-0.2744h0.0308v0.6279c-0.1938,0.082-0.3921,0.1504-0.5942,0.2051
		c-0.2021,0.0557-0.4146,0.083-0.6367,0.083c-0.5679,0-1.0107-0.1533-1.3291-0.4609s-0.4775-0.7441-0.4775-1.3096
		c0-0.5586,0.1523-1.0029,0.4575-1.332c0.3052-0.3281,0.707-0.4922,1.2051-0.4922c0.4614,0,0.8169,0.1348,1.0674,0.4033
		c0.25,0.2695,0.375,0.6523,0.375,1.1484V193.6108z M299.5411,193.1704c-0.002-0.3027-0.0781-0.5361-0.228-0.7012
		c-0.1499-0.166-0.3784-0.248-0.6846-0.248c-0.3081,0-0.5537,0.0908-0.7363,0.2725s-0.2861,0.4072-0.3105,0.6768H299.5411z"/>
	<path d="M303.9352,195.2612h-0.7256l-0.9707-1.3135l-0.9766,1.3135h-0.6709l1.3354-1.7051l-1.3232-1.7148h0.7261l0.9644,1.292
		l0.9678-1.292h0.6733l-1.3442,1.6836L303.9352,195.2612z"/>
	<path d="M286.6837,201.3843c0,0.2266-0.043,0.4268-0.1289,0.6006c-0.0854,0.1729-0.2007,0.3164-0.3457,0.4287
		c-0.1714,0.1348-0.3599,0.2305-0.5649,0.2871c-0.2051,0.0576-0.4663,0.0859-0.7827,0.0859h-1.6167v-4.5596h1.3506
		c0.3325,0,0.5815,0.0127,0.7471,0.0371s0.3237,0.0752,0.4746,0.1533c0.1675,0.0879,0.2891,0.2002,0.3643,0.3379
		c0.0757,0.1377,0.1133,0.3027,0.1133,0.4951c0,0.2158-0.0552,0.4004-0.165,0.5527c-0.1104,0.1514-0.2573,0.2734-0.4409,0.3652
		v0.0244c0.3081,0.0635,0.5508,0.1992,0.7285,0.4062S286.6837,201.0679,286.6837,201.3843z M285.6637,199.3296
		c0-0.1104-0.0181-0.2031-0.0547-0.2783c-0.0371-0.0752-0.0962-0.1367-0.1777-0.1836c-0.0962-0.0557-0.2124-0.0898-0.3491-0.1025
		c-0.1367-0.0137-0.3062-0.0205-0.5083-0.0205h-0.7227v1.3174h0.7837c0.1899,0,0.3413-0.0098,0.4531-0.0293
		c0.1123-0.0195,0.2168-0.0596,0.3125-0.1211c0.0962-0.0615,0.1641-0.1406,0.2036-0.2373
		C285.6442,199.5776,285.6637,199.4624,285.6637,199.3296z M286.0529,201.4087c0-0.1836-0.0278-0.3291-0.0825-0.4375
		c-0.0552-0.1084-0.1553-0.2002-0.3003-0.2754c-0.0981-0.0518-0.2168-0.085-0.3569-0.0996
		c-0.1396-0.0156-0.3096-0.0234-0.5098-0.0234h-0.9521v1.6963h0.8022c0.2651,0,0.4829-0.0137,0.6523-0.041
		s0.3081-0.0781,0.4165-0.1514c0.1143-0.0801,0.1978-0.1709,0.251-0.2725C286.0265,201.7016,286.0529,201.5698,286.0529,201.4087z"
		/>
	<path d="M290.3336,202.7866h-0.5757v-0.3799c-0.1938,0.1533-0.3794,0.2705-0.5571,0.3525s-0.3735,0.1221-0.5879,0.1221
		c-0.3594,0-0.6392-0.1094-0.8389-0.3291c-0.2002-0.2188-0.3003-0.541-0.3003-0.9658v-2.2197h0.5757v1.9473
		c0,0.1738,0.0083,0.3223,0.0244,0.4453c0.0166,0.124,0.0513,0.2295,0.104,0.3174c0.0552,0.0898,0.127,0.1553,0.2144,0.1953
		c0.0879,0.041,0.2153,0.0615,0.3828,0.0615c0.1489,0,0.312-0.0391,0.4888-0.1162c0.1763-0.0771,0.3413-0.1768,0.4941-0.2969
		v-2.5537h0.5757V202.7866z"/>
	<path d="M293.3068,198.5796h-0.0308c-0.063-0.0186-0.146-0.0371-0.248-0.0566s-0.1919-0.0293-0.269-0.0293
		c-0.2471,0-0.4263,0.0547-0.5376,0.1641s-0.167,0.3066-0.167,0.5928v0.1162h1.0381v0.4834h-1.0195v2.9365h-0.5757v-2.9365h-0.3892
		v-0.4834h0.3892v-0.1133c0-0.4062,0.1011-0.7188,0.3032-0.9355c0.2021-0.2178,0.4937-0.3262,0.8755-0.3262
		c0.1289,0,0.2446,0.0059,0.3477,0.0186c0.103,0.0117,0.1978,0.0264,0.2832,0.043V198.5796z"/>
	<path d="M295.5114,198.5796h-0.0308c-0.063-0.0186-0.146-0.0371-0.248-0.0566s-0.1919-0.0293-0.269-0.0293
		c-0.2471,0-0.4263,0.0547-0.5376,0.1641s-0.167,0.3066-0.167,0.5928v0.1162h1.0381v0.4834h-1.0195v2.9365h-0.5757v-2.9365h-0.3892
		v-0.4834h0.3892v-0.1133c0-0.4062,0.1011-0.7188,0.3032-0.9355c0.2021-0.2178,0.4937-0.3262,0.8755-0.3262
		c0.1289,0,0.2446,0.0059,0.3477,0.0186c0.103,0.0117,0.1978,0.0264,0.2832,0.043V198.5796z"/>
	<path d="M298.7394,201.1362h-2.52c0,0.21,0.0312,0.3936,0.0947,0.5498c0.063,0.1562,0.1499,0.2842,0.2603,0.3848
		c0.106,0.0977,0.2324,0.1709,0.3779,0.2197c0.146,0.0488,0.3071,0.0742,0.4824,0.0742c0.2329,0,0.4673-0.0469,0.7026-0.1396
		c0.2358-0.0928,0.4038-0.1846,0.5039-0.2744h0.0308v0.6279c-0.1938,0.082-0.3921,0.1504-0.5942,0.2051
		c-0.2021,0.0557-0.4146,0.083-0.6367,0.083c-0.5679,0-1.0107-0.1533-1.3291-0.4609s-0.4775-0.7441-0.4775-1.3096
		c0-0.5586,0.1523-1.0029,0.4575-1.332c0.3052-0.3281,0.707-0.4922,1.2051-0.4922c0.4614,0,0.8169,0.1348,1.0674,0.4033
		c0.25,0.2695,0.375,0.6523,0.375,1.1484V201.1362z M298.1788,200.6958c-0.002-0.3027-0.0781-0.5361-0.228-0.7012
		c-0.1499-0.166-0.3784-0.248-0.6846-0.248c-0.3081,0-0.5537,0.0908-0.7363,0.2725s-0.2861,0.4072-0.3105,0.6768H298.1788z"/>
	<path d="M301.7462,199.9946h-0.0308c-0.0854-0.0205-0.1689-0.0352-0.2495-0.0449c-0.0806-0.0088-0.1758-0.0137-0.2861-0.0137
		c-0.1777,0-0.3491,0.0391-0.5146,0.1182c-0.165,0.0781-0.3242,0.1797-0.4775,0.3047v2.4277h-0.5757v-3.4199h0.5757v0.5049
		c0.2285-0.1836,0.4302-0.3135,0.605-0.3906c0.1743-0.0762,0.3525-0.1143,0.5342-0.1143c0.1001,0,0.1724,0.002,0.2173,0.0078
		c0.0449,0.0049,0.1123,0.0146,0.2021,0.0283V199.9946z"/>
	<path d="M304.7321,201.8013c0,0.3115-0.1294,0.5684-0.3877,0.7686s-0.6108,0.2998-1.0576,0.2998
		c-0.2534,0-0.4854-0.0303-0.6968-0.0908c-0.2114-0.0596-0.3887-0.126-0.5312-0.1973v-0.6455h0.0308
		c0.1816,0.1367,0.3833,0.2451,0.606,0.3252c0.2227,0.0811,0.436,0.1211,0.6401,0.1211c0.2529,0,0.4512-0.04,0.5942-0.1221
		c0.1426-0.082,0.2144-0.21,0.2144-0.3857c0-0.1348-0.0391-0.2373-0.1167-0.3066s-0.2266-0.1279-0.4468-0.1777
		c-0.082-0.0176-0.1885-0.0391-0.3203-0.0635c-0.1313-0.0254-0.2515-0.0518-0.3599-0.0801
		c-0.2998-0.0791-0.5127-0.1963-0.6382-0.3506s-0.1885-0.3438-0.1885-0.5684c0-0.1406,0.0293-0.2734,0.0874-0.3975
		c0.0581-0.125,0.1465-0.2363,0.2646-0.334c0.1143-0.0957,0.2598-0.1719,0.4365-0.2285c0.1768-0.0557,0.374-0.084,0.5923-0.084
		c0.2046,0,0.4111,0.0254,0.6201,0.0752c0.2095,0.0498,0.3833,0.1104,0.5225,0.1826v0.6152h-0.0308
		c-0.147-0.1084-0.3257-0.2002-0.5361-0.2744c-0.21-0.0742-0.416-0.1113-0.6182-0.1113c-0.2104,0-0.3882,0.04-0.5327,0.1211
		c-0.145,0.0801-0.2178,0.2002-0.2178,0.3594c0,0.1406,0.0439,0.2471,0.1318,0.3184c0.0859,0.0713,0.2246,0.1299,0.4165,0.1748
		c0.106,0.0244,0.2251,0.0488,0.3564,0.0732c0.1318,0.0244,0.2417,0.0469,0.3296,0.0674c0.2671,0.0615,0.4731,0.166,0.6182,0.3154
		C304.6593,201.352,304.7321,201.5522,304.7321,201.8013z"/>
</g>
<path fill="#F2F0F0" stroke="#231F20" stroke-miterlimit="10" d="M406.981,184.9406h-41.1948c-1.1,0-2-0.9-2-2v-19.7567
	c0-1.1,0.9-2,2-2h41.1948c1.1,0,2,0.9,2,2v19.7567C408.981,184.0406,408.081,184.9406,406.981,184.9406z"/>
<g>
	<path d="M374.4435,174.7983c-0.1123,0.0488-0.2139,0.0947-0.3047,0.1377s-0.209,0.0879-0.3564,0.1348
		c-0.125,0.0391-0.2598,0.0723-0.4053,0.0996c-0.1465,0.0273-0.3076,0.041-0.4824,0.041c-0.3311,0-0.6318-0.0459-0.9023-0.1387
		s-0.5059-0.2383-0.7051-0.4365c-0.1963-0.1943-0.3496-0.4404-0.46-0.7393c-0.1104-0.2998-0.165-0.6465-0.165-1.043
		c0-0.376,0.0527-0.7109,0.1592-1.0078c0.1064-0.2959,0.2588-0.5459,0.459-0.75c0.1943-0.1982,0.4287-0.3486,0.7031-0.4531
		s0.5791-0.1562,0.9141-0.1562c0.2451,0,0.4893,0.0303,0.7334,0.0889c0.2441,0.0596,0.5146,0.1631,0.8125,0.3125v0.7197h-0.0459
		c-0.251-0.21-0.5-0.3633-0.7471-0.46c-0.2471-0.0957-0.5107-0.1436-0.793-0.1436c-0.2305,0-0.4385,0.0371-0.623,0.1123
		c-0.1846,0.0742-0.3496,0.1904-0.4941,0.3467c-0.1416,0.1533-0.251,0.3467-0.3301,0.5811
		c-0.0781,0.2334-0.1172,0.5029-0.1172,0.8096c0,0.3203,0.043,0.5957,0.1299,0.8271c0.0869,0.2305,0.1982,0.418,0.335,0.5635
		c0.1436,0.1504,0.3105,0.2627,0.501,0.335s0.3926,0.1084,0.6045,0.1084c0.292,0,0.5654-0.0498,0.8213-0.1494
		c0.2549-0.1006,0.4941-0.25,0.7158-0.4502h0.043V174.7983z"/>
	<path d="M377.9132,175.1294h-0.5723v-0.3643c-0.0518,0.0342-0.1201,0.083-0.207,0.1455c-0.0869,0.0615-0.1709,0.1113-0.2529,0.1484
		c-0.0957,0.0469-0.2061,0.0859-0.3301,0.1172c-0.125,0.0322-0.2705,0.0479-0.4385,0.0479c-0.3076,0-0.5693-0.1025-0.7832-0.3066
		c-0.2148-0.2041-0.3223-0.4639-0.3223-0.7803c0-0.2598,0.0557-0.4688,0.167-0.6299c0.1113-0.1602,0.2705-0.2861,0.4766-0.3779
		c0.208-0.0918,0.458-0.1543,0.75-0.1865s0.6055-0.0576,0.9404-0.0732v-0.0889c0-0.1309-0.0234-0.2393-0.0693-0.3252
		c-0.0459-0.085-0.1113-0.1523-0.1973-0.2021c-0.082-0.0469-0.1797-0.0781-0.2939-0.0947
		c-0.1143-0.0156-0.2344-0.0244-0.3584-0.0244c-0.1514,0-0.3193,0.0205-0.5049,0.0596c-0.1865,0.04-0.3779,0.0977-0.5762,0.1729
		h-0.0303v-0.584c0.1123-0.0312,0.2744-0.0645,0.4863-0.1016c0.2129-0.0371,0.4219-0.0547,0.6279-0.0547
		c0.2412,0,0.4512,0.0195,0.6289,0.0596c0.1787,0.04,0.334,0.1074,0.4648,0.2031c0.1279,0.0938,0.2266,0.2158,0.2939,0.3643
		c0.0674,0.1494,0.1006,0.334,0.1006,0.5547V175.1294z M377.3409,174.2866v-0.9521c-0.1758,0.0107-0.3828,0.0254-0.6201,0.0459
		c-0.2383,0.0205-0.4268,0.0508-0.5654,0.0889c-0.165,0.0469-0.2988,0.1201-0.4014,0.2188
		c-0.1016,0.0996-0.1523,0.2354-0.1523,0.4092c0,0.1963,0.0586,0.3438,0.1777,0.4424c0.1182,0.0996,0.2988,0.1484,0.542,0.1484
		c0.2012,0,0.3867-0.0391,0.5537-0.1172C377.0421,174.4917,377.1974,174.397,377.3409,174.2866z"/>
	<path d="M380.797,175.0981c-0.1074,0.0293-0.2256,0.0527-0.3535,0.0713c-0.127,0.0176-0.2412,0.0273-0.3408,0.0273
		c-0.3496,0-0.6152-0.0938-0.7969-0.2822c-0.1816-0.1875-0.2725-0.4883-0.2725-0.9033v-1.8184h-0.3887v-0.4844h0.3887v-0.9824
		h0.5762v0.9824h1.1875v0.4844h-1.1875v1.5586c0,0.1797,0.0039,0.3193,0.0117,0.4209c0.0088,0.1006,0.0371,0.1953,0.0859,0.2832
		c0.0449,0.082,0.1064,0.1416,0.1855,0.1787c0.0781,0.0381,0.1982,0.0566,0.3594,0.0566c0.0938,0,0.1924-0.0137,0.2939-0.041
		c0.1025-0.0273,0.1758-0.0508,0.2207-0.0693h0.0303V175.0981z"/>
	<path d="M384.0216,174.9145c-0.1914,0.0918-0.374,0.1641-0.5459,0.2148c-0.1729,0.0508-0.3564,0.0762-0.5498,0.0762
		c-0.2471,0-0.4736-0.0361-0.6797-0.1084s-0.3828-0.1826-0.5303-0.3291c-0.1484-0.1475-0.2646-0.333-0.3457-0.5576
		c-0.082-0.2246-0.123-0.4863-0.123-0.7871c0-0.5596,0.1543-0.998,0.4609-1.3164c0.3076-0.3184,0.7129-0.4775,1.2178-0.4775
		c0.1953,0,0.3877,0.0273,0.5771,0.082c0.1885,0.0557,0.3613,0.123,0.5186,0.2021v0.6406h-0.0303
		c-0.1758-0.1367-0.3564-0.2422-0.5439-0.3154c-0.1865-0.0742-0.3682-0.1104-0.5459-0.1104c-0.3271,0-0.585,0.1094-0.7734,0.3291
		s-0.2832,0.541-0.2832,0.9658c0,0.4131,0.0918,0.7295,0.2773,0.9512c0.1846,0.2217,0.4443,0.332,0.7793,0.332
		c0.1162,0,0.2344-0.0156,0.3545-0.0459c0.1211-0.0303,0.2295-0.0703,0.3252-0.1191c0.083-0.043,0.1621-0.0889,0.2354-0.1367
		c0.0742-0.0479,0.1318-0.0889,0.1748-0.124h0.0303V174.9145z"/>
	<path d="M387.6202,175.1294h-0.5762v-1.9473c0-0.1572-0.0088-0.3047-0.0273-0.4434c-0.0186-0.1377-0.0518-0.2451-0.1006-0.3223
		c-0.0508-0.0859-0.125-0.1494-0.2207-0.1914s-0.2207-0.0635-0.374-0.0635c-0.1572,0-0.3213,0.0391-0.4922,0.1172
		c-0.1719,0.0771-0.3359,0.1758-0.4932,0.2969v2.5537h-0.5762v-4.7646h0.5762v1.7236c0.1797-0.1484,0.3652-0.2656,0.5576-0.3486
		c0.1914-0.084,0.3887-0.126,0.5908-0.126c0.3691,0,0.6504,0.1113,0.8447,0.334s0.291,0.543,0.291,0.9609V175.1294z"/>
	<path d="M393.7198,175.1294h-0.5762v-1.9473c0-0.1475-0.0059-0.2891-0.0195-0.4258s-0.041-0.2461-0.084-0.3281
		c-0.0469-0.0879-0.1143-0.1543-0.2021-0.1992s-0.2148-0.0674-0.3799-0.0674c-0.1611,0-0.3223,0.041-0.4834,0.1211
		c-0.1621,0.0811-0.3232,0.1836-0.4844,0.3076c0.0059,0.0469,0.0117,0.1016,0.0156,0.1641s0.0059,0.124,0.0059,0.1855v2.1895
		h-0.5752v-1.9473c0-0.1514-0.0068-0.2949-0.0205-0.4307c-0.0127-0.1357-0.041-0.2441-0.084-0.3262
		c-0.0469-0.0879-0.1143-0.1533-0.2021-0.1973s-0.2139-0.0664-0.3799-0.0664c-0.1572,0-0.3145,0.0391-0.4727,0.1172
		c-0.1582,0.0771-0.3164,0.1758-0.4736,0.2969v2.5537h-0.5752v-3.4209h0.5752v0.3799c0.1797-0.1484,0.3594-0.2656,0.5381-0.3486
		c0.1787-0.084,0.3682-0.126,0.5703-0.126c0.2334,0,0.4307,0.0488,0.5928,0.1475c0.1621,0.0977,0.2832,0.2334,0.3633,0.4072
		c0.2324-0.1963,0.4443-0.3379,0.6367-0.4248c0.1914-0.0859,0.3965-0.1299,0.6152-0.1299c0.376,0,0.6533,0.1143,0.8311,0.3418
		c0.1787,0.2275,0.2686,0.5449,0.2686,0.9531V175.1294z"/>
	<path d="M397.6915,173.479h-2.5205c0,0.21,0.0312,0.3936,0.0947,0.5498c0.0635,0.1553,0.1504,0.2842,0.2607,0.3838
		c0.1055,0.0977,0.2324,0.1719,0.3779,0.2207s0.3066,0.0732,0.4824,0.0732c0.2324,0,0.4668-0.0459,0.7021-0.1396
		c0.2363-0.0928,0.4043-0.1836,0.5039-0.2734h0.0312v0.6279c-0.1943,0.0811-0.3926,0.1494-0.5947,0.2051
		c-0.2021,0.0547-0.4141,0.082-0.6367,0.082c-0.5674,0-1.0107-0.1533-1.3291-0.4609c-0.3184-0.3066-0.4775-0.7432-0.4775-1.3086
		c0-0.5596,0.1523-1.0029,0.458-1.332c0.3047-0.3291,0.707-0.4932,1.2051-0.4932c0.4609,0,0.8164,0.1348,1.0674,0.4043
		c0.25,0.2695,0.375,0.6523,0.375,1.1484V173.479z M397.131,173.0376c-0.002-0.3018-0.0781-0.5361-0.2285-0.7012
		c-0.1494-0.165-0.3779-0.248-0.6846-0.248c-0.3076,0-0.5537,0.0908-0.7363,0.2725s-0.2861,0.4072-0.3105,0.6768H397.131z"/>
	<path d="M401.424,175.1294h-0.5762v-1.9473c0-0.1572-0.0088-0.3047-0.0273-0.4434c-0.0186-0.1377-0.0518-0.2451-0.1006-0.3223
		c-0.0508-0.0859-0.125-0.1494-0.2207-0.1914s-0.2207-0.0635-0.374-0.0635c-0.1572,0-0.3213,0.0391-0.4922,0.1172
		c-0.1719,0.0771-0.3359,0.1758-0.4932,0.2969v2.5537h-0.5762v-3.4209h0.5762v0.3799c0.1797-0.1484,0.3652-0.2656,0.5576-0.3486
		c0.1914-0.084,0.3887-0.126,0.5908-0.126c0.3691,0,0.6504,0.1113,0.8447,0.334s0.291,0.543,0.291,0.9609V175.1294z"/>
	<path d="M404.3087,175.0981c-0.1084,0.0293-0.2266,0.0527-0.3535,0.0713c-0.1279,0.0176-0.2412,0.0273-0.3418,0.0273
		c-0.3486,0-0.6143-0.0938-0.7959-0.2822c-0.1816-0.1875-0.2725-0.4883-0.2725-0.9033v-1.8184h-0.3887v-0.4844h0.3887v-0.9824
		h0.5752v0.9824h1.1885v0.4844h-1.1885v1.5586c0,0.1797,0.0049,0.3193,0.0127,0.4209c0.0078,0.1006,0.0371,0.1953,0.0859,0.2832
		c0.0449,0.082,0.1064,0.1416,0.1846,0.1787c0.0791,0.0381,0.1992,0.0566,0.3604,0.0566c0.0938,0,0.1914-0.0137,0.2939-0.041
		c0.1016-0.0273,0.1758-0.0508,0.2207-0.0693h0.0303V175.0981z"/>
</g>
<line fill="none" stroke="#000000" stroke-miterlimit="10" x1="317.2331" y1="140.3756" x2="364.0692" y2="218.8845"/>
<g>
	
		<rect x="369.8521" y="211.3227" fill="#F2F0F0" stroke="#231F20" stroke-width="0.5" stroke-miterlimit="10" width="45.7328" height="23.7567"/>
	
		<rect x="366.9064" y="208.3648" fill="#F2F0F0" stroke="#231F20" stroke-width="0.5" stroke-miterlimit="10" width="45.7328" height="23.7567"/>
	
		<rect x="364.0692" y="205.0119" fill="#FFFFFF" stroke="#231F20" stroke-width="0.5" stroke-miterlimit="10" width="45.7328" height="23.7567"/>
</g>
<g>
	<path d="M378.2745,219.4839c-0.249,0.1143-0.5205,0.2139-0.8154,0.2988c-0.2949,0.084-0.5811,0.127-0.8564,0.127
		c-0.3545,0-0.6807-0.0488-0.9766-0.1475c-0.2959-0.0977-0.5479-0.2451-0.7568-0.4404c-0.21-0.1982-0.3721-0.4463-0.4863-0.7432
		s-0.1719-0.6445-0.1719-1.042c0-0.7295,0.2129-1.3047,0.6387-1.7256c0.4258-0.4219,1.0098-0.6328,1.7529-0.6328
		c0.2598,0,0.5244,0.0312,0.7949,0.0938s0.5615,0.168,0.874,0.3164v0.7197h-0.0547c-0.0635-0.0488-0.1553-0.1133-0.2764-0.1924
		c-0.1201-0.0801-0.2383-0.1465-0.3545-0.1992c-0.1406-0.0635-0.3008-0.1162-0.4795-0.1582
		c-0.1787-0.041-0.3809-0.0625-0.6074-0.0625c-0.5107,0-0.9141,0.1641-1.2109,0.4912c-0.2979,0.3281-0.4463,0.7715-0.4463,1.3311
		c0,0.5898,0.1553,1.0488,0.4658,1.376c0.3105,0.3281,0.7324,0.4912,1.2676,0.4912c0.1963,0,0.3916-0.0186,0.5859-0.0576
		c0.1953-0.0391,0.3662-0.0889,0.5137-0.1504V218.06h-1.2217v-0.5332h1.8213V219.4839z"/>
	<path d="M382.1515,218.1704h-2.5195c0,0.21,0.0312,0.3936,0.0947,0.5498c0.0625,0.1553,0.1494,0.2842,0.2598,0.3838
		c0.1064,0.0977,0.2324,0.1719,0.3779,0.2207c0.1465,0.0488,0.3076,0.0732,0.4824,0.0732c0.2334,0,0.4678-0.0459,0.7031-0.1396
		c0.2354-0.0928,0.4033-0.1836,0.5039-0.2734h0.0303v0.6279c-0.1934,0.0811-0.3916,0.1494-0.5938,0.2051
		c-0.2021,0.0547-0.415,0.082-0.6367,0.082c-0.5684,0-1.0107-0.1533-1.3291-0.4609c-0.3184-0.3066-0.4775-0.7432-0.4775-1.3086
		c0-0.5596,0.1523-1.0029,0.457-1.332c0.3057-0.3291,0.707-0.4932,1.2051-0.4932c0.4619,0,0.8174,0.1348,1.0674,0.4043
		s0.375,0.6523,0.375,1.1484V218.1704z M381.5909,217.729c-0.002-0.3018-0.0781-0.5361-0.2275-0.7012
		c-0.1504-0.165-0.3789-0.248-0.6846-0.248c-0.3086,0-0.5537,0.0908-0.7363,0.2725s-0.2861,0.4072-0.3105,0.6768H381.5909z"/>
	<path d="M385.9386,218.1118c0,0.5576-0.1426,0.9971-0.4287,1.3203c-0.2852,0.3223-0.668,0.4834-1.1475,0.4834
		c-0.4844,0-0.8682-0.1611-1.1533-0.4834c-0.2852-0.3232-0.4268-0.7627-0.4268-1.3203s0.1416-0.998,0.4268-1.3213
		s0.6689-0.4854,1.1533-0.4854c0.4795,0,0.8623,0.1621,1.1475,0.4854C385.796,217.1138,385.9386,217.5542,385.9386,218.1118z
		 M385.3448,218.1118c0-0.4424-0.0869-0.7725-0.2598-0.9873c-0.1738-0.2158-0.415-0.3232-0.7227-0.3232
		c-0.3125,0-0.5547,0.1074-0.7275,0.3232c-0.1729,0.2148-0.2588,0.5449-0.2588,0.9873c0,0.4287,0.0869,0.7539,0.2598,0.9756
		c0.1738,0.2217,0.416,0.332,0.7266,0.332c0.3057,0,0.5459-0.1094,0.7207-0.3291S385.3448,218.5444,385.3448,218.1118z"/>
	<path d="M390.3976,219.4897c-0.1123,0.0488-0.2139,0.0947-0.3047,0.1377s-0.209,0.0879-0.3564,0.1348
		c-0.125,0.0391-0.2598,0.0723-0.4053,0.0996c-0.1465,0.0273-0.3076,0.041-0.4824,0.041c-0.3311,0-0.6318-0.0459-0.9023-0.1387
		s-0.5059-0.2383-0.7051-0.4365c-0.1963-0.1943-0.3496-0.4404-0.46-0.7393c-0.1104-0.2998-0.165-0.6465-0.165-1.043
		c0-0.376,0.0527-0.7109,0.1592-1.0078c0.1064-0.2959,0.2588-0.5459,0.459-0.75c0.1943-0.1982,0.4287-0.3486,0.7031-0.4531
		s0.5791-0.1562,0.9141-0.1562c0.2451,0,0.4893,0.0303,0.7334,0.0889c0.2441,0.0596,0.5146,0.1631,0.8125,0.3125v0.7197h-0.0459
		c-0.251-0.21-0.5-0.3633-0.7471-0.46c-0.2471-0.0957-0.5107-0.1436-0.793-0.1436c-0.2305,0-0.4385,0.0371-0.623,0.1123
		c-0.1846,0.0742-0.3496,0.1904-0.4941,0.3467c-0.1416,0.1533-0.251,0.3467-0.3301,0.5811
		c-0.0781,0.2334-0.1172,0.5029-0.1172,0.8096c0,0.3203,0.043,0.5957,0.1299,0.8271c0.0869,0.2305,0.1982,0.418,0.335,0.5635
		c0.1436,0.1504,0.3105,0.2627,0.501,0.335s0.3926,0.1084,0.6045,0.1084c0.292,0,0.5654-0.0498,0.8213-0.1494
		c0.2549-0.1006,0.4941-0.25,0.7158-0.4502h0.043V219.4897z"/>
	<path d="M394.0724,218.1704h-2.5205c0,0.21,0.0312,0.3936,0.0947,0.5498c0.0635,0.1553,0.1504,0.2842,0.2607,0.3838
		c0.1055,0.0977,0.2324,0.1719,0.3779,0.2207s0.3066,0.0732,0.4824,0.0732c0.2324,0,0.4668-0.0459,0.7021-0.1396
		c0.2363-0.0928,0.4043-0.1836,0.5039-0.2734h0.0312v0.6279c-0.1943,0.0811-0.3926,0.1494-0.5947,0.2051
		c-0.2021,0.0547-0.4141,0.082-0.6367,0.082c-0.5674,0-1.0107-0.1533-1.3291-0.4609c-0.3184-0.3066-0.4775-0.7432-0.4775-1.3086
		c0-0.5596,0.1523-1.0029,0.458-1.332c0.3047-0.3291,0.707-0.4932,1.2051-0.4932c0.4609,0,0.8164,0.1348,1.0674,0.4043
		c0.25,0.2695,0.375,0.6523,0.375,1.1484V218.1704z M393.5118,217.729c-0.002-0.3018-0.0781-0.5361-0.2285-0.7012
		c-0.1494-0.165-0.3779-0.248-0.6846-0.248c-0.3076,0-0.5537,0.0908-0.7363,0.2725s-0.2861,0.4072-0.3105,0.6768H393.5118z"/>
	<path d="M395.5265,219.8208h-0.5752v-4.7646h0.5752V219.8208z"/>
	<path d="M397.2482,219.8208h-0.5762v-4.7646h0.5762V219.8208z"/>
	<path d="M400.8302,218.8345c0,0.3125-0.1289,0.5684-0.3877,0.7686c-0.2578,0.2002-0.6104,0.2998-1.0576,0.2998
		c-0.2529,0-0.4854-0.0293-0.6963-0.0898c-0.2119-0.0605-0.3887-0.126-0.5312-0.1973v-0.6465h0.0303
		c0.1816,0.1367,0.3838,0.2451,0.6064,0.3262s0.4355,0.1211,0.6396,0.1211c0.2529,0,0.4512-0.041,0.5947-0.123
		c0.1426-0.0811,0.2139-0.21,0.2139-0.3857c0-0.1348-0.0391-0.2363-0.1162-0.3057c-0.0781-0.0693-0.2266-0.1289-0.4473-0.1777
		c-0.082-0.0186-0.1885-0.04-0.3203-0.0645c-0.1309-0.0244-0.251-0.0508-0.3594-0.0791c-0.2998-0.0801-0.5127-0.1973-0.6387-0.3506
		c-0.125-0.1543-0.1885-0.3438-0.1885-0.5684c0-0.1406,0.0293-0.2734,0.0879-0.3984c0.0576-0.124,0.1465-0.2354,0.2646-0.334
		c0.1143-0.0957,0.2598-0.1719,0.4365-0.2275c0.1768-0.0566,0.374-0.084,0.5918-0.084c0.2051,0,0.4111,0.0244,0.6201,0.0742
		c0.21,0.0508,0.3838,0.1113,0.5225,0.1826v0.6152h-0.0303c-0.1475-0.1074-0.3262-0.1992-0.5361-0.2734
		c-0.21-0.0752-0.416-0.1123-0.6182-0.1123c-0.2109,0-0.3887,0.04-0.5332,0.1211s-0.2178,0.2002-0.2178,0.3594
		c0,0.1416,0.0439,0.2471,0.1318,0.3193c0.0859,0.0713,0.2246,0.1289,0.417,0.1738c0.1055,0.0244,0.2246,0.0488,0.3564,0.0742
		c0.1318,0.0244,0.2412,0.0469,0.3291,0.0674c0.2676,0.0605,0.4736,0.166,0.6182,0.3154
		C400.7579,218.3852,400.8302,218.5854,400.8302,218.8345z"/>
</g>
<line fill="none" stroke="#000000" stroke-miterlimit="10" x1="309.7176" y1="141.2233" x2="364.0692" y2="269.0234"/>
<g>
	
		<rect x="369.8521" y="261.4616" fill="#F2F0F0" stroke="#231F20" stroke-width="0.5" stroke-miterlimit="10" width="45.7328" height="23.7567"/>
	
		<rect x="366.9064" y="258.5037" fill="#F2F0F0" stroke="#231F20" stroke-width="0.5" stroke-miterlimit="10" width="45.7328" height="23.7567"/>
	
		<rect x="364.0692" y="255.1507" fill="#FFFFFF" stroke="#231F20" stroke-width="0.5" stroke-miterlimit="10" width="45.7328" height="23.7567"/>
</g>
<g>
	<path d="M382.1281,260.939h-2.3057v1.2861h1.9814v0.5391h-1.9814v2.1953h-0.6064v-4.5596h2.9121V260.939z"/>
	<path d="M383.3927,260.9663h-0.6494v-0.5977h0.6494V260.9663z M383.3566,264.9595h-0.5762v-3.4209h0.5762V264.9595z"/>
	<path d="M386.63,262.1665h-0.0312c-0.085-0.0205-0.1689-0.0352-0.249-0.0439c-0.0811-0.0098-0.1758-0.0137-0.2861-0.0137
		c-0.1777,0-0.3496,0.0391-0.5146,0.1172c-0.165,0.0791-0.3242,0.1807-0.4775,0.3047v2.4287h-0.5762v-3.4209h0.5762v0.5059
		c0.2285-0.1836,0.4297-0.3145,0.6045-0.3906c0.1748-0.0771,0.3525-0.1152,0.5342-0.1152c0.1006,0,0.1729,0.0029,0.2178,0.0078
		s0.1123,0.0146,0.2021,0.0293V262.1665z"/>
	<path d="M389.6154,263.9731c0,0.3125-0.1289,0.5684-0.3877,0.7686c-0.2578,0.2002-0.6104,0.2998-1.0576,0.2998
		c-0.2529,0-0.4854-0.0293-0.6963-0.0898c-0.2119-0.0605-0.3887-0.126-0.5312-0.1973v-0.6465h0.0303
		c0.1816,0.1367,0.3838,0.2451,0.6064,0.3262s0.4355,0.1211,0.6396,0.1211c0.2529,0,0.4512-0.041,0.5947-0.123
		c0.1426-0.0811,0.2139-0.21,0.2139-0.3857c0-0.1348-0.0391-0.2363-0.1162-0.3057c-0.0781-0.0693-0.2266-0.1289-0.4473-0.1777
		c-0.082-0.0186-0.1885-0.04-0.3203-0.0645c-0.1309-0.0244-0.251-0.0508-0.3594-0.0791c-0.2998-0.0801-0.5127-0.1973-0.6387-0.3506
		c-0.125-0.1543-0.1885-0.3438-0.1885-0.5684c0-0.1406,0.0293-0.2734,0.0879-0.3984c0.0576-0.124,0.1465-0.2354,0.2646-0.334
		c0.1143-0.0957,0.2598-0.1719,0.4365-0.2275c0.1768-0.0566,0.374-0.084,0.5918-0.084c0.2051,0,0.4111,0.0244,0.6201,0.0742
		c0.21,0.0508,0.3838,0.1113,0.5225,0.1826v0.6152h-0.0303c-0.1475-0.1074-0.3262-0.1992-0.5361-0.2734
		c-0.21-0.0752-0.416-0.1123-0.6182-0.1123c-0.2109,0-0.3887,0.04-0.5332,0.1211s-0.2178,0.2002-0.2178,0.3594
		c0,0.1416,0.0439,0.2471,0.1318,0.3193c0.0859,0.0713,0.2246,0.1289,0.417,0.1738c0.1055,0.0244,0.2246,0.0488,0.3564,0.0742
		c0.1318,0.0244,0.2412,0.0469,0.3291,0.0674c0.2676,0.0605,0.4736,0.166,0.6182,0.3154
		C389.5431,263.5239,389.6154,263.7241,389.6154,263.9731z"/>
	<path d="M392.215,264.9282c-0.1084,0.0293-0.2266,0.0527-0.3535,0.0713c-0.1279,0.0176-0.2412,0.0273-0.3418,0.0273
		c-0.3486,0-0.6143-0.0938-0.7959-0.2822c-0.1816-0.1875-0.2725-0.4883-0.2725-0.9033v-1.8184h-0.3887v-0.4844h0.3887v-0.9824
		h0.5752v0.9824h1.1885v0.4844h-1.1885v1.5586c0,0.1797,0.0049,0.3193,0.0127,0.4209c0.0078,0.1006,0.0371,0.1953,0.0859,0.2832
		c0.0449,0.082,0.1064,0.1416,0.1846,0.1787c0.0791,0.0381,0.1992,0.0566,0.3604,0.0566c0.0938,0,0.1914-0.0137,0.2939-0.041
		c0.1016-0.0273,0.1758-0.0508,0.2207-0.0693h0.0303V264.9282z"/>
	<path d="M378.8849,268.4487c0.1865,0.2041,0.3281,0.4541,0.4277,0.75c0.0986,0.2959,0.1484,0.6318,0.1484,1.0078
		s-0.0508,0.7119-0.1514,1.0088c-0.1016,0.2969-0.2432,0.5449-0.4248,0.7422c-0.1875,0.207-0.4092,0.3613-0.666,0.4658
		c-0.2559,0.1045-0.5479,0.1562-0.877,0.1562c-0.3203,0-0.6123-0.0527-0.874-0.1592c-0.2627-0.1064-0.4854-0.2607-0.6689-0.4629
		s-0.3252-0.4502-0.4248-0.7441c-0.0986-0.2939-0.1484-0.6289-0.1484-1.0068c0-0.3721,0.0498-0.7051,0.1475-1
		s0.2402-0.5479,0.4287-0.7578c0.1797-0.2002,0.4023-0.3535,0.6689-0.459c0.2666-0.1064,0.5566-0.1592,0.8711-0.1592
		c0.3262,0,0.6201,0.0537,0.8809,0.1602C378.4825,268.0981,378.7032,268.2505,378.8849,268.4487z M378.8302,270.2065
		c0-0.5918-0.1328-1.0488-0.3984-1.3701c-0.2646-0.3223-0.627-0.4824-1.0869-0.4824c-0.4629,0-0.8271,0.1602-1.0918,0.4824
		c-0.2637,0.3213-0.3965,0.7783-0.3965,1.3701c0,0.5977,0.1348,1.0557,0.4043,1.373s0.6309,0.4766,1.084,0.4766
		s0.8145-0.1592,1.083-0.4766C378.6954,271.2622,378.8302,270.8042,378.8302,270.2065z"/>
	<path d="M382.5109,269.6919h-0.0312c-0.085-0.0205-0.1689-0.0352-0.249-0.0439c-0.0811-0.0098-0.1758-0.0137-0.2861-0.0137
		c-0.1777,0-0.3496,0.0391-0.5146,0.1172c-0.165,0.0791-0.3242,0.1807-0.4775,0.3047v2.4287h-0.5762v-3.4209h0.5762v0.5059
		c0.2285-0.1836,0.4297-0.3145,0.6045-0.3906c0.1748-0.0771,0.3525-0.1152,0.5342-0.1152c0.1006,0,0.1729,0.0029,0.2178,0.0078
		s0.1123,0.0146,0.2021,0.0293V269.6919z"/>
	<path d="M385.8273,272.4849h-0.5762v-0.3584c-0.165,0.1426-0.3379,0.2539-0.5176,0.334c-0.1797,0.0791-0.374,0.1191-0.585,0.1191
		c-0.4082,0-0.7324-0.1572-0.9717-0.4717c-0.2402-0.3145-0.3604-0.75-0.3604-1.3076c0-0.29,0.042-0.5479,0.124-0.7744
		c0.083-0.2266,0.1943-0.4199,0.3359-0.5791c0.1387-0.1553,0.3008-0.2734,0.4854-0.3545c0.1846-0.082,0.376-0.123,0.5742-0.123
		c0.1797,0,0.3389,0.0186,0.4775,0.0566s0.2842,0.0967,0.4375,0.1758v-1.4814h0.5762V272.4849z M385.2511,271.6421v-1.9619
		c-0.1553-0.0693-0.2939-0.1182-0.416-0.1445c-0.123-0.0264-0.2568-0.04-0.4014-0.04c-0.3223,0-0.5732,0.1123-0.7529,0.3369
		s-0.2695,0.543-0.2695,0.9561c0,0.4062,0.0693,0.7148,0.208,0.9258c0.1387,0.2119,0.3613,0.3174,0.667,0.3174
		c0.1641,0,0.3291-0.0361,0.4961-0.1094C384.9503,271.8501,385.1066,271.7573,385.2511,271.6421z"/>
	<path d="M389.8234,270.8345h-2.5205c0,0.21,0.0312,0.3936,0.0947,0.5498c0.0635,0.1553,0.1504,0.2842,0.2607,0.3838
		c0.1055,0.0977,0.2324,0.1719,0.3779,0.2207s0.3066,0.0732,0.4824,0.0732c0.2324,0,0.4668-0.0459,0.7021-0.1396
		c0.2363-0.0928,0.4043-0.1836,0.5039-0.2734h0.0312v0.6279c-0.1943,0.0811-0.3926,0.1494-0.5947,0.2051
		c-0.2021,0.0547-0.4141,0.082-0.6367,0.082c-0.5674,0-1.0107-0.1533-1.3291-0.4609c-0.3184-0.3066-0.4775-0.7432-0.4775-1.3086
		c0-0.5596,0.1523-1.0029,0.458-1.332c0.3047-0.3291,0.707-0.4932,1.2051-0.4932c0.4609,0,0.8164,0.1348,1.0674,0.4043
		c0.25,0.2695,0.375,0.6523,0.375,1.1484V270.8345z M389.2628,270.3931c-0.002-0.3018-0.0781-0.5361-0.2285-0.7012
		c-0.1494-0.165-0.3779-0.248-0.6846-0.248c-0.3076,0-0.5537,0.0908-0.7363,0.2725s-0.2861,0.4072-0.3105,0.6768H389.2628z"/>
	<path d="M392.8302,269.6919h-0.0312c-0.085-0.0205-0.1689-0.0352-0.249-0.0439c-0.0811-0.0098-0.1758-0.0137-0.2861-0.0137
		c-0.1777,0-0.3496,0.0391-0.5146,0.1172c-0.165,0.0791-0.3242,0.1807-0.4775,0.3047v2.4287h-0.5762v-3.4209h0.5762v0.5059
		c0.2285-0.1836,0.4297-0.3145,0.6045-0.3906c0.1748-0.0771,0.3525-0.1152,0.5342-0.1152c0.1006,0,0.1729,0.0029,0.2178,0.0078
		s0.1123,0.0146,0.2021,0.0293V269.6919z"/>
	<path d="M395.8156,271.4985c0,0.3125-0.1289,0.5684-0.3877,0.7686c-0.2578,0.2002-0.6104,0.2998-1.0576,0.2998
		c-0.2529,0-0.4854-0.0293-0.6963-0.0898c-0.2119-0.0605-0.3887-0.126-0.5312-0.1973v-0.6465h0.0303
		c0.1816,0.1367,0.3838,0.2451,0.6064,0.3262s0.4355,0.1211,0.6396,0.1211c0.2529,0,0.4512-0.041,0.5947-0.123
		c0.1426-0.0811,0.2139-0.21,0.2139-0.3857c0-0.1348-0.0391-0.2363-0.1162-0.3057c-0.0781-0.0693-0.2266-0.1289-0.4473-0.1777
		c-0.082-0.0186-0.1885-0.04-0.3203-0.0645c-0.1309-0.0244-0.251-0.0508-0.3594-0.0791c-0.2998-0.0801-0.5127-0.1973-0.6387-0.3506
		c-0.125-0.1543-0.1885-0.3438-0.1885-0.5684c0-0.1406,0.0293-0.2734,0.0879-0.3984c0.0576-0.124,0.1465-0.2354,0.2646-0.334
		c0.1143-0.0957,0.2598-0.1719,0.4365-0.2275c0.1768-0.0566,0.374-0.084,0.5918-0.084c0.2051,0,0.4111,0.0244,0.6201,0.0742
		c0.21,0.0508,0.3838,0.1113,0.5225,0.1826v0.6152h-0.0303c-0.1475-0.1074-0.3262-0.1992-0.5361-0.2734
		c-0.21-0.0752-0.416-0.1123-0.6182-0.1123c-0.2109,0-0.3887,0.04-0.5332,0.1211s-0.2178,0.2002-0.2178,0.3594
		c0,0.1416,0.0439,0.2471,0.1318,0.3193c0.0859,0.0713,0.2246,0.1289,0.417,0.1738c0.1055,0.0244,0.2246,0.0488,0.3564,0.0742
		c0.1318,0.0244,0.2412,0.0469,0.3291,0.0674c0.2676,0.0605,0.4736,0.166,0.6182,0.3154
		C395.7433,271.0493,395.8156,271.2495,395.8156,271.4985z"/>
</g>
<line fill="none" stroke="#000000" stroke-miterlimit="10" x1="409.6385" y1="129.8324" x2="432.2857" y2="129.8324"/>
<g>
	
		<rect x="438.0685" y="122.2706" fill="#F2F0F0" stroke="#231F20" stroke-width="0.5" stroke-miterlimit="10" width="45.7328" height="23.7567"/>
	
		<rect x="435.1229" y="119.3127" fill="#F2F0F0" stroke="#231F20" stroke-width="0.5" stroke-miterlimit="10" width="45.7328" height="23.7567"/>
	
		<rect x="432.2857" y="115.9597" fill="#FFFFFF" stroke="#231F20" stroke-width="0.5" stroke-miterlimit="10" width="45.7328" height="23.7567"/>
</g>
<g>
	<path d="M446.3507,125.748h-1.6289v4.0205h-0.6074v-4.0205h-1.6289v-0.5391h3.8652V125.748z"/>
	<path d="M449.7804,128.1181h-2.5205c0,0.21,0.0312,0.3936,0.0947,0.5498c0.0625,0.1558,0.1504,0.2842,0.2598,0.3843
		c0.1064,0.0977,0.2324,0.1714,0.3789,0.2202c0.1455,0.0488,0.3066,0.0737,0.4824,0.0737c0.2324,0,0.4668-0.0464,0.7021-0.1396
		c0.2354-0.0928,0.4033-0.1841,0.5039-0.2739h0.0303v0.6279c-0.1934,0.0815-0.3916,0.1499-0.5938,0.2051
		s-0.4141,0.0825-0.6367,0.0825c-0.5684,0-1.0107-0.1533-1.3291-0.4609c-0.3184-0.3071-0.4775-0.7437-0.4775-1.3091
		c0-0.5591,0.1523-1.0029,0.457-1.332c0.3057-0.3286,0.707-0.4927,1.2051-0.4927c0.4619,0,0.8174,0.1348,1.0684,0.4038
		c0.25,0.2695,0.375,0.6523,0.375,1.1484V128.1181z M449.2198,127.6772c-0.002-0.3022-0.0781-0.5361-0.2285-0.7012
		c-0.1504-0.1655-0.3789-0.248-0.6846-0.248c-0.3076,0-0.5537,0.0908-0.7363,0.2725s-0.2861,0.4072-0.3105,0.6768H449.2198z"/>
	<path d="M452.7863,126.9761h-0.0303c-0.085-0.0205-0.1689-0.0352-0.249-0.0444c-0.0811-0.0093-0.1758-0.0137-0.2871-0.0137
		c-0.1777,0-0.3486,0.0391-0.5137,0.1177c-0.166,0.0786-0.3242,0.1802-0.4785,0.3047v2.4282h-0.5752v-3.4204h0.5752v0.5054
		c0.2285-0.1836,0.4307-0.314,0.6055-0.3906c0.1738-0.0767,0.3525-0.1147,0.5342-0.1147c0.1006,0,0.1729,0.0024,0.2178,0.0078
		c0.0449,0.0049,0.1113,0.0146,0.2012,0.0288V126.9761z"/>
	<path d="M455.463,126.9761h-0.0303c-0.0859-0.0205-0.1699-0.0352-0.25-0.0444s-0.1758-0.0137-0.2861-0.0137
		c-0.1777,0-0.3486,0.0391-0.5146,0.1177c-0.165,0.0786-0.3242,0.1802-0.4775,0.3047v2.4282h-0.5752v-3.4204h0.5752v0.5054
		c0.2285-0.1836,0.4307-0.314,0.6045-0.3906c0.1748-0.0767,0.3535-0.1147,0.5352-0.1147c0.0996,0,0.1719,0.0024,0.2168,0.0078
		c0.0449,0.0049,0.1123,0.0146,0.2021,0.0288V126.9761z"/>
	<path d="M458.6632,129.7685h-0.5723v-0.3643c-0.0518,0.0347-0.1211,0.083-0.207,0.1455c-0.0869,0.062-0.1719,0.1118-0.2529,0.1484
		c-0.0957,0.0469-0.2061,0.0859-0.3311,0.1177c-0.124,0.0317-0.2695,0.0474-0.4375,0.0474c-0.3086,0-0.5693-0.1021-0.7832-0.3062
		c-0.2148-0.2041-0.3223-0.4644-0.3223-0.7808c0-0.2593,0.0557-0.4688,0.167-0.6294c0.1113-0.1602,0.2705-0.2861,0.4756-0.3779
		c0.209-0.0918,0.459-0.1543,0.751-0.187c0.292-0.0322,0.6045-0.0571,0.9404-0.0732v-0.0889c0-0.1309-0.0234-0.2388-0.0693-0.3247
		c-0.0459-0.0854-0.1123-0.1528-0.1982-0.2021c-0.0811-0.0469-0.1797-0.0786-0.293-0.0947
		c-0.1152-0.0161-0.2344-0.0244-0.3594-0.0244c-0.1504,0-0.3184,0.02-0.5039,0.0596c-0.1865,0.04-0.3789,0.0977-0.5762,0.1729
		h-0.0312v-0.5845c0.1133-0.0308,0.2754-0.0645,0.4873-0.1011c0.2119-0.0371,0.4209-0.0552,0.6279-0.0552
		c0.2402,0,0.4512,0.02,0.6289,0.0596c0.1787,0.04,0.334,0.1079,0.4648,0.2036c0.1279,0.0938,0.2266,0.2153,0.293,0.3643
		c0.0684,0.1494,0.1016,0.334,0.1016,0.5542V129.7685z M458.0909,128.9263v-0.9521c-0.1758,0.0103-0.3828,0.0254-0.6211,0.0459
		c-0.2373,0.0205-0.4258,0.0503-0.5645,0.0889c-0.166,0.0469-0.2988,0.1201-0.4014,0.2188
		c-0.1025,0.0991-0.1533,0.2354-0.1533,0.4092c0,0.1958,0.0596,0.3433,0.1777,0.4424c0.1191,0.0991,0.2988,0.1484,0.543,0.1484
		c0.2012,0,0.3867-0.0391,0.5537-0.1177S457.9474,129.0366,458.0909,128.9263z"/>
	<path d="M460.3898,125.7754h-0.6484v-0.5972h0.6484V125.7754z M460.3536,129.7685h-0.5752v-3.4204h0.5752V129.7685z"/>
	<path d="M464.3527,129.7685h-0.5762v-1.9473c0-0.1572-0.0088-0.3047-0.0273-0.4429c-0.0186-0.1377-0.0527-0.2451-0.1016-0.3228
		c-0.0508-0.0859-0.124-0.1494-0.2197-0.1914c-0.0967-0.042-0.2207-0.063-0.374-0.063c-0.1572,0-0.3213,0.0391-0.4922,0.1167
		c-0.1719,0.0771-0.3359,0.1763-0.4941,0.2969v2.5537h-0.5752v-3.4204h0.5752v0.3799c0.1797-0.1489,0.3652-0.2656,0.5586-0.3491
		c0.1914-0.084,0.3887-0.1255,0.5898-0.1255c0.3701,0,0.6514,0.1113,0.8457,0.3335c0.1934,0.2227,0.291,0.543,0.291,0.9614V129.7685
		z"/>
</g>
<path fill="#F2F0F0" stroke="#231F20" stroke-miterlimit="10" d="M476.823,79.4468h-41.1948c-1.1,0-2-0.9-2-2V57.6901
	c0-1.1,0.9-2,2-2h41.1948c1.1,0,2,0.9,2,2v19.7567C478.823,78.5468,477.923,79.4468,476.823,79.4468z"/>
<g>
	<path d="M454.84,69.123h-0.7871l-1.5244-1.813h-0.8545v1.813h-0.6064v-4.5596h1.2764c0.2764,0,0.5059,0.0181,0.6895,0.0537
		s0.3486,0.0996,0.4961,0.1914c0.165,0.104,0.2939,0.2354,0.3877,0.3936c0.0928,0.1582,0.1387,0.3589,0.1387,0.6016
		c0,0.3286-0.082,0.604-0.248,0.8252c-0.165,0.2217-0.3926,0.3887-0.6826,0.5005L454.84,69.123z M453.422,65.8467
		c0-0.1309-0.0225-0.2466-0.0684-0.3477s-0.1221-0.186-0.2285-0.2559c-0.0879-0.0591-0.1924-0.1001-0.3125-0.124
		c-0.1201-0.0234-0.2617-0.0352-0.4258-0.0352h-0.7129v1.7212h0.6123c0.1914,0,0.3594-0.0171,0.502-0.0508
		s0.2646-0.0962,0.3643-0.188c0.0918-0.0859,0.1602-0.1846,0.2041-0.2959C453.4005,66.1597,453.422,66.0181,453.422,65.8467z"/>
	<path d="M458.0402,69.123h-0.5732v-0.3643c-0.0508,0.0347-0.1201,0.083-0.2061,0.1455c-0.0869,0.062-0.1719,0.1118-0.2529,0.1484
		c-0.0957,0.0469-0.2061,0.0859-0.3311,0.1177c-0.124,0.0317-0.2705,0.0474-0.4375,0.0474c-0.3086,0-0.5693-0.1021-0.7842-0.3062
		c-0.2139-0.2041-0.3213-0.4644-0.3213-0.7808c0-0.2593,0.0557-0.4688,0.167-0.6294c0.1113-0.1602,0.2695-0.2861,0.4756-0.3779
		c0.209-0.0918,0.459-0.1543,0.751-0.187c0.291-0.0322,0.6045-0.0571,0.9395-0.0732v-0.0889c0-0.1309-0.0225-0.2388-0.0684-0.3247
		c-0.0459-0.0854-0.1123-0.1528-0.1982-0.2021c-0.0811-0.0469-0.1797-0.0786-0.2939-0.0947s-0.2334-0.0244-0.3584-0.0244
		c-0.1504,0-0.3193,0.02-0.5049,0.0596c-0.1855,0.04-0.3779,0.0977-0.5752,0.1729h-0.0312v-0.5845
		c0.1123-0.0308,0.2744-0.0645,0.4873-0.1011c0.2119-0.0371,0.4209-0.0552,0.6279-0.0552c0.2402,0,0.4502,0.02,0.6289,0.0596
		c0.1787,0.04,0.333,0.1079,0.4639,0.2036c0.1289,0.0938,0.2266,0.2153,0.2939,0.3643c0.0674,0.1494,0.1016,0.334,0.1016,0.5542
		V69.123z M457.4669,68.2807v-0.9521c-0.1758,0.0103-0.3818,0.0254-0.6201,0.0459c-0.2373,0.0205-0.4258,0.0503-0.5645,0.0889
		c-0.166,0.0469-0.2998,0.1201-0.4014,0.2188c-0.1025,0.0991-0.1533,0.2354-0.1533,0.4092c0,0.1958,0.0596,0.3433,0.1777,0.4424
		s0.2988,0.1484,0.542,0.1484c0.2021,0,0.3867-0.0391,0.5547-0.1177C457.1691,68.4858,457.3243,68.3911,457.4669,68.2807z"/>
	<path d="M460.924,69.0923c-0.1074,0.0288-0.2256,0.0522-0.3535,0.0708c-0.127,0.0181-0.2412,0.0273-0.3408,0.0273
		c-0.3496,0-0.6152-0.0938-0.7969-0.2817s-0.2725-0.4888-0.2725-0.9033v-1.8188h-0.3887v-0.4839h0.3887v-0.9829h0.5762v0.9829
		h1.1875v0.4839h-1.1875v1.5586c0,0.1797,0.0039,0.3198,0.0117,0.4209c0.0088,0.1011,0.0371,0.1958,0.0859,0.2832
		c0.0449,0.082,0.1064,0.1416,0.1855,0.1792c0.0781,0.0381,0.1982,0.0566,0.3594,0.0566c0.0938,0,0.1924-0.0137,0.2939-0.041
		c0.1025-0.0278,0.1758-0.0508,0.2207-0.0693h0.0303V69.0923z"/>
</g>
<line fill="none" stroke="#000000" stroke-miterlimit="10" x1="317.6009" y1="134.149" x2="363.2372" y2="173.0622"/>
<line fill="none" stroke="#000000" stroke-miterlimit="10" x1="408.981" y1="58.2025" x2="428.4433" y2="14.1227"/>
<g>
	
		<rect x="434.2262" y="6.5608" fill="#F2F0F0" stroke="#231F20" stroke-width="0.5" stroke-miterlimit="10" width="45.7328" height="23.7567"/>
	
		<rect x="431.2805" y="3.603" fill="#F2F0F0" stroke="#231F20" stroke-width="0.5" stroke-miterlimit="10" width="45.7328" height="23.7567"/>
	
		<rect x="428.4433" y="0.25" fill="#FFFFFF" stroke="#231F20" stroke-width="0.5" stroke-miterlimit="10" width="45.7328" height="23.7567"/>
</g>
<g>
	<path d="M446.5695,13.728c-0.1123,0.0488-0.2139,0.0947-0.3047,0.1377s-0.209,0.0879-0.3564,0.1348
		c-0.125,0.0386-0.2598,0.0718-0.4053,0.0996c-0.1465,0.0273-0.3076,0.041-0.4824,0.041c-0.3311,0-0.6318-0.0464-0.9023-0.1392
		s-0.5059-0.2383-0.7051-0.4365c-0.1963-0.1938-0.3496-0.4404-0.46-0.7393c-0.1104-0.2993-0.165-0.6465-0.165-1.0425
		c0-0.376,0.0527-0.7114,0.1592-1.0078c0.1064-0.2959,0.2588-0.5459,0.459-0.75c0.1943-0.1982,0.4287-0.3491,0.7031-0.4531
		c0.2744-0.1045,0.5791-0.1562,0.9141-0.1562c0.2451,0,0.4893,0.0298,0.7334,0.0889s0.5146,0.1631,0.8125,0.312v0.7197h-0.0459
		c-0.251-0.21-0.5-0.3633-0.7471-0.4595c-0.2471-0.0957-0.5107-0.1436-0.793-0.1436c-0.2305,0-0.4385,0.0371-0.623,0.1118
		c-0.1846,0.0742-0.3496,0.1904-0.4941,0.3472c-0.1416,0.1533-0.251,0.3467-0.3301,0.5806
		c-0.0781,0.2339-0.1172,0.5034-0.1172,0.8101c0,0.3203,0.043,0.5957,0.1299,0.8267c0.0869,0.2305,0.1982,0.4185,0.335,0.5635
		c0.1436,0.1509,0.3105,0.2627,0.501,0.335c0.1904,0.0728,0.3926,0.1089,0.6045,0.1089c0.292,0,0.5654-0.0498,0.8213-0.1499
		c0.2549-0.1001,0.4941-0.25,0.7158-0.4502h0.043V13.728z"/>
	<path d="M450.2443,12.4082h-2.5195c0,0.21,0.0312,0.3936,0.0947,0.5498c0.0625,0.1558,0.1494,0.2842,0.2598,0.3843
		c0.1064,0.0977,0.2324,0.1714,0.3779,0.2202c0.1465,0.0488,0.3076,0.0737,0.4824,0.0737c0.2334,0,0.4678-0.0464,0.7031-0.1396
		c0.2354-0.0928,0.4033-0.1841,0.5039-0.2739h0.0303v0.6279c-0.1934,0.0815-0.3916,0.1499-0.5938,0.2051
		s-0.415,0.0825-0.6367,0.0825c-0.5684,0-1.0107-0.1533-1.3291-0.4609c-0.3184-0.3071-0.4775-0.7437-0.4775-1.3091
		c0-0.5591,0.1523-1.0029,0.457-1.332c0.3057-0.3286,0.707-0.4927,1.2051-0.4927c0.4619,0,0.8174,0.1348,1.0674,0.4038
		c0.25,0.2695,0.375,0.6523,0.375,1.1484V12.4082z M449.6837,11.9673c-0.002-0.3022-0.0781-0.5361-0.2275-0.7012
		c-0.1504-0.1655-0.3789-0.248-0.6846-0.248c-0.3086,0-0.5537,0.0908-0.7363,0.2725s-0.2861,0.4072-0.3105,0.6768H449.6837z"/>
	<path d="M451.6993,14.0586h-0.5762V9.2939h0.5762V14.0586z"/>
	<path d="M453.42,14.0586h-0.5762V9.2939h0.5762V14.0586z"/>
	<path d="M457.0021,13.0727c0,0.312-0.1289,0.5684-0.3877,0.7686c-0.2578,0.2002-0.6104,0.2998-1.0576,0.2998
		c-0.2529,0-0.4854-0.0298-0.6963-0.0903c-0.2119-0.0601-0.3887-0.126-0.5312-0.1973v-0.646h0.0303
		c0.1816,0.1367,0.3838,0.2451,0.6064,0.3257c0.2227,0.0811,0.4355,0.1211,0.6396,0.1211c0.2529,0,0.4512-0.0405,0.5947-0.1226
		c0.1426-0.0815,0.2139-0.21,0.2139-0.3857c0-0.1348-0.0391-0.2368-0.1162-0.3062c-0.0781-0.0693-0.2266-0.1284-0.4473-0.1777
		c-0.082-0.0181-0.1885-0.0396-0.3203-0.064c-0.1309-0.0249-0.251-0.0513-0.3594-0.0796c-0.2998-0.0796-0.5127-0.1968-0.6387-0.3506
		c-0.125-0.1543-0.1885-0.3438-0.1885-0.5684c0-0.1406,0.0293-0.2734,0.0879-0.3979c0.0576-0.1245,0.1465-0.2358,0.2646-0.334
		c0.1143-0.0957,0.2598-0.1719,0.4365-0.228s0.374-0.084,0.5918-0.084c0.2051,0,0.4111,0.0249,0.6201,0.0747
		c0.21,0.0503,0.3838,0.1108,0.5225,0.1826v0.6152h-0.0303c-0.1475-0.1079-0.3262-0.1997-0.5361-0.2739
		c-0.21-0.0747-0.416-0.1118-0.6182-0.1118c-0.2109,0-0.3887,0.04-0.5332,0.1211c-0.1445,0.0806-0.2178,0.2002-0.2178,0.3594
		c0,0.1411,0.0439,0.2471,0.1318,0.3188c0.0859,0.0713,0.2246,0.1294,0.417,0.1743c0.1055,0.0244,0.2246,0.0488,0.3564,0.0737
		c0.1318,0.0244,0.2412,0.0469,0.3291,0.0674c0.2676,0.061,0.4736,0.166,0.6182,0.3154
		C456.9298,12.6235,457.0021,12.8237,457.0021,13.0727z"/>
</g>
<line fill="none" stroke="#000000" stroke-miterlimit="10" x1="293.3671" y1="117.3558" x2="250.7589" y2="41.0809"/>
<line fill="none" stroke="#000000" stroke-miterlimit="10" x1="249.7589" y1="199.3257" x2="295.2726" y2="141.8016"/>
</svg>
